<?xml version="1.0" encoding="UTF-8" ?>
<!DOCTYPE svg PUBLIC "-//W3C//DTD SVG 1.1//EN" "http://www.w3.org/Graphics/SVG/1.1/DTD/svg11.dtd">
<svg width="750pt" height="563pt" viewBox="0 0 750 563" version="1.1" xmlns="http://www.w3.org/2000/svg">
<path fill="#030304" opacity="1.00" d=" M 387.88 40.25 C 400.52 38.81 413.27 39.74 425.94 40.33 C 430.93 40.61 435.96 40.72 440.87 41.73 C 448.03 43.17 454.87 45.81 461.94 47.61 C 467.45 48.94 472.42 51.79 477.84 53.39 C 490.15 57.10 500.96 64.28 512.62 69.52 C 517.70 71.77 522.31 74.92 527.02 77.83 C 530.78 80.19 534.86 81.96 538.64 84.29 C 546.65 89.16 553.67 95.45 561.59 100.45 C 564.61 102.34 567.50 104.48 569.98 107.06 C 577.68 115.19 584.63 124.02 590.47 133.59 C 596.93 142.90 602.38 152.88 606.78 163.33 C 611.57 173.24 614.46 183.90 617.30 194.50 C 620.28 207.17 623.92 219.91 623.52 233.06 C 623.12 246.07 624.22 259.15 622.52 272.10 C 621.02 284.46 618.39 296.65 616.25 308.91 C 614.14 320.96 612.45 333.14 608.99 344.91 C 606.01 354.70 601.98 364.43 595.32 372.34 C 590.32 378.64 586.00 385.64 579.60 390.69 C 570.80 397.56 563.74 406.80 553.46 411.65 C 543.05 416.63 532.17 420.61 522.13 426.35 C 500.29 438.62 474.87 444.01 449.93 442.78 C 444.16 442.27 439.51 446.27 435.72 450.07 C 439.76 454.18 444.73 457.17 449.16 460.83 C 453.92 464.68 458.00 469.33 463.06 472.83 C 467.96 476.20 472.75 479.72 477.55 483.22 C 474.19 477.00 472.36 469.80 473.74 462.75 C 475.28 462.56 476.83 462.36 478.38 462.17 C 483.01 468.22 482.15 476.32 485.40 482.97 C 487.84 481.21 492.43 480.71 492.54 476.99 C 493.40 472.50 491.34 468.20 488.56 464.81 C 489.57 462.61 491.98 460.41 494.55 461.58 C 497.95 463.52 500.47 467.05 501.56 470.77 C 501.11 475.04 499.94 479.20 499.28 483.44 C 502.92 483.12 507.80 483.68 510.03 480.08 C 510.74 476.04 510.62 471.90 511.32 467.85 C 513.48 467.51 515.68 467.53 517.84 467.98 C 518.74 473.44 519.20 479.19 517.65 484.58 C 515.20 488.37 510.50 489.45 506.65 491.26 C 508.13 493.75 511.38 493.72 513.94 493.59 C 517.63 492.46 519.66 487.63 523.93 488.16 C 526.41 489.00 525.78 492.15 526.13 494.17 C 523.73 496.46 521.92 499.64 518.87 501.09 C 514.44 501.72 509.64 502.15 505.39 500.59 C 498.44 496.42 492.24 489.79 483.55 489.75 C 486.57 495.68 491.89 499.85 496.65 504.32 C 499.62 507.09 502.88 509.53 506.22 511.85 C 512.67 509.53 518.10 505.20 524.46 502.68 C 528.61 501.04 532.07 498.17 535.47 495.36 C 543.39 490.36 551.71 485.93 558.99 479.97 C 564.98 475.21 571.80 470.68 574.78 463.30 C 571.86 460.54 568.50 458.22 565.94 455.11 C 563.70 452.11 565.47 445.82 569.95 446.85 C 573.42 449.43 575.30 453.72 578.99 456.12 C 581.60 458.28 585.26 457.56 588.16 459.04 C 589.46 459.35 590.82 460.89 592.16 459.75 C 594.11 454.42 594.05 448.59 595.40 443.10 C 597.71 442.95 600.03 443.17 602.23 443.96 C 603.48 450.87 601.07 457.59 600.18 464.37 C 603.88 462.36 605.66 458.38 608.79 455.75 C 610.23 454.50 612.19 455.12 613.89 455.26 C 614.32 457.41 614.90 459.75 613.71 461.79 C 611.24 466.77 606.66 471.07 601.01 471.92 C 594.60 473.02 588.17 470.70 582.84 467.26 C 579.22 471.45 576.27 476.27 572.00 479.88 C 564.12 486.56 555.67 492.58 546.79 497.85 C 539.65 501.15 534.71 507.91 527.13 510.35 C 520.41 512.86 514.75 517.44 508.21 520.29 C 505.29 521.79 502.36 519.69 500.21 517.85 C 495.01 513.37 489.69 509.02 484.77 504.24 C 480.02 499.67 476.64 493.69 470.92 490.17 C 459.06 494.10 447.49 499.25 435.04 501.07 C 423.11 503.60 410.72 502.23 398.85 505.07 C 395.51 505.46 393.82 508.71 392.21 511.25 C 387.01 520.95 383.31 531.37 378.34 541.17 C 374.29 548.40 369.51 555.25 366.46 563.00 L 357.97 563.00 C 361.59 553.73 367.15 545.42 371.55 536.53 C 374.50 531.93 377.34 527.20 379.11 521.99 C 380.77 516.85 383.75 512.16 384.52 506.74 C 371.25 506.12 359.16 512.38 346.42 514.90 C 343.26 510.95 340.70 506.51 337.06 502.95 C 326.54 492.44 314.49 483.49 304.83 472.12 C 300.60 467.02 294.78 463.54 290.73 458.28 C 287.85 454.43 283.44 451.97 281.00 447.76 C 276.98 441.05 270.52 436.38 265.74 430.29 C 263.67 427.72 262.34 424.45 259.44 422.67 C 256.96 421.04 254.38 419.58 251.92 417.92 C 252.21 415.89 252.03 413.40 254.06 412.21 C 261.11 412.54 267.02 417.68 270.61 423.46 C 274.93 430.30 282.08 434.73 286.39 441.59 C 289.13 446.07 293.65 449.01 296.77 453.19 C 300.88 458.40 306.64 461.97 310.85 467.09 C 320.61 479.02 333.62 487.66 343.97 499.02 C 346.01 501.22 348.05 503.43 350.14 505.59 C 358.40 503.67 366.43 500.71 374.82 499.39 C 380.65 498.43 387.18 500.66 392.52 497.49 C 400.32 489.26 405.84 479.20 411.52 469.47 C 417.46 459.67 425.76 451.60 432.08 442.07 C 408.10 441.29 384.23 438.11 360.76 433.18 C 352.22 431.15 344.55 426.64 336.09 424.35 C 324.49 421.33 314.33 414.81 303.91 409.13 C 292.98 402.92 282.37 396.12 272.18 388.74 C 270.07 387.25 267.39 385.28 264.74 386.71 C 256.06 390.93 249.92 398.63 242.78 404.85 C 235.15 411.50 227.52 418.16 219.96 424.90 C 214.12 430.16 207.30 434.21 201.57 439.60 C 193.33 447.46 183.61 453.54 175.22 461.22 C 169.03 466.56 165.23 473.94 160.47 480.46 C 156.34 486.88 150.90 492.46 147.75 499.48 C 145.58 504.09 143.19 508.95 138.75 511.78 C 131.61 516.52 126.67 523.66 120.57 529.54 C 116.54 533.49 114.20 538.79 112.75 544.16 C 111.14 543.98 109.54 543.80 107.93 543.64 C 108.10 539.77 108.03 535.87 108.66 532.03 C 111.61 526.75 116.22 522.72 120.34 518.39 C 123.61 514.99 126.41 511.10 130.17 508.20 C 132.63 506.29 135.38 504.63 137.16 502.01 C 140.50 497.22 142.30 491.53 145.92 486.92 C 152.08 478.98 157.41 470.45 163.25 462.28 C 170.06 453.94 179.02 447.79 187.52 441.34 C 192.00 437.93 195.90 433.84 200.20 430.22 C 203.31 427.57 206.79 425.41 209.99 422.88 C 215.17 418.78 219.89 414.13 224.89 409.83 C 236.38 400.28 246.61 389.27 258.65 380.40 C 255.12 376.88 251.15 373.69 248.47 369.43 C 243.76 361.99 239.28 354.36 235.91 346.21 C 232.75 338.79 230.98 330.90 228.92 323.14 C 227.15 316.55 227.17 309.69 226.00 303.01 C 223.87 290.05 220.05 277.24 220.32 264.00 C 220.47 249.98 220.24 235.95 220.43 221.93 C 220.43 215.03 223.40 208.67 224.94 202.05 C 229.00 185.58 232.24 168.78 238.93 153.10 C 245.84 137.23 250.33 120.39 258.06 104.86 C 260.89 99.03 266.26 95.12 271.16 91.13 C 278.03 85.71 284.36 79.61 291.54 74.58 C 295.73 71.84 299.87 69.02 303.70 65.77 C 309.17 61.09 315.87 58.27 322.20 54.96 C 325.86 53.06 330.06 52.52 334.10 53.36 C 342.26 54.65 348.25 47.61 355.70 45.78 C 366.29 43.22 377.10 41.78 387.88 40.25 M 361.62 52.68 C 357.02 53.20 353.12 55.75 348.99 57.57 C 339.49 62.00 329.46 65.73 318.94 66.57 C 314.15 66.67 310.67 70.39 307.29 73.30 C 303.61 76.77 298.87 78.73 294.92 81.83 C 286.57 88.10 278.90 95.21 270.83 101.82 C 266.07 105.43 263.87 111.12 261.51 116.38 C 255.77 129.69 251.76 143.67 245.94 156.94 C 240.10 171.48 236.59 186.80 233.19 202.05 C 231.81 209.10 228.29 215.71 228.25 223.01 C 228.17 238.02 228.10 253.04 228.36 268.05 C 229.91 283.10 233.83 297.81 235.15 312.90 C 235.64 319.82 238.27 326.30 239.89 332.99 C 242.97 344.73 248.88 355.49 255.50 365.58 C 259.92 372.06 267.03 376.56 274.73 378.00 C 275.54 379.59 276.21 381.26 277.23 382.74 C 292.59 393.85 309.06 403.36 325.81 412.22 C 336.23 417.02 347.67 419.16 357.98 424.26 C 362.11 421.09 367.34 424.46 371.82 422.47 C 370.43 421.00 368.95 419.63 367.61 418.13 C 368.48 414.25 372.43 417.86 374.83 417.99 C 374.55 416.82 373.99 414.49 373.71 413.32 C 375.54 413.40 377.37 413.51 379.21 413.65 C 379.40 412.15 379.58 410.66 379.75 409.18 C 381.45 408.94 383.17 408.87 384.89 408.86 C 388.64 405.29 391.72 401.07 395.62 397.63 C 400.60 392.88 402.48 385.62 407.69 381.12 C 405.55 387.82 402.66 394.30 399.28 400.47 C 396.43 406.06 390.28 408.55 386.27 413.12 C 381.75 418.38 376.12 422.54 371.61 427.81 C 382.14 428.96 392.58 430.80 403.10 432.11 C 424.33 434.10 445.70 435.17 467.03 434.50 C 486.34 433.28 505.49 427.50 521.82 417.01 C 519.73 408.53 517.11 400.19 514.45 391.88 C 510.12 394.70 507.18 399.76 501.95 401.07 C 490.26 402.68 478.58 399.43 467.76 395.26 C 464.96 394.02 461.85 394.16 458.90 393.65 C 454.46 393.15 450.51 390.51 445.97 390.59 C 442.74 390.55 439.73 391.81 436.73 392.83 C 432.86 392.27 428.76 390.32 427.05 386.60 C 430.09 386.05 433.09 385.24 435.88 383.87 C 440.19 381.76 445.00 383.72 449.04 385.54 C 452.67 387.62 456.24 390.51 460.73 390.07 C 459.61 388.09 457.94 386.72 455.54 387.03 C 455.72 385.62 456.48 384.56 457.82 383.86 C 466.37 390.08 476.93 392.29 487.01 394.71 C 492.17 396.07 497.58 396.99 502.92 396.23 C 510.09 394.42 514.94 387.31 516.14 380.32 C 516.50 380.81 517.21 381.80 517.57 382.29 C 514.89 394.47 527.88 403.24 526.62 415.37 C 533.35 411.70 540.49 408.87 547.47 405.71 C 554.75 402.40 560.80 397.01 566.57 391.57 C 571.70 386.74 577.56 382.60 581.84 376.93 C 584.55 373.30 587.28 369.68 590.14 366.15 C 596.08 358.89 598.90 349.76 601.87 341.02 C 606.64 320.57 609.48 299.73 613.56 279.13 C 616.46 260.95 616.07 242.42 615.38 224.08 C 610.68 193.78 601.61 163.39 583.90 138.01 C 580.06 132.01 576.00 126.12 571.29 120.77 C 567.21 116.21 563.61 111.05 558.35 107.74 C 547.97 101.09 538.69 92.72 527.54 87.30 C 521.38 84.42 516.20 79.84 509.94 77.14 C 497.91 71.81 486.93 64.01 474.08 60.61 C 469.28 59.31 465.08 56.41 460.20 55.36 C 451.42 53.47 443.07 49.69 434.04 48.92 C 420.02 48.13 405.94 46.21 391.90 47.72 C 381.80 49.34 371.58 50.20 361.62 52.68 M 425.03 463.99 C 419.56 471.12 414.94 478.86 410.73 486.79 C 408.70 490.77 404.85 493.25 401.75 496.31 C 414.66 494.58 427.86 495.20 440.53 491.79 C 448.74 489.96 456.45 486.48 464.51 484.10 C 461.92 480.64 457.50 479.49 454.59 476.40 C 447.35 469.33 439.43 462.96 430.94 457.45 C 428.54 459.21 426.84 461.68 425.03 463.99 Z" />
<path fill="#ffffff" opacity="1.00" d=" M 361.62 52.68 C 371.58 50.20 381.80 49.34 391.90 47.72 C 405.94 46.21 420.02 48.13 434.04 48.92 C 443.07 49.69 451.42 53.47 460.20 55.36 C 465.08 56.41 469.28 59.31 474.08 60.61 C 486.93 64.01 497.91 71.81 509.94 77.14 C 516.20 79.84 521.38 84.42 527.54 87.30 C 538.69 92.72 547.97 101.09 558.35 107.74 C 563.61 111.05 567.21 116.21 571.29 120.77 C 576.00 126.12 580.06 132.01 583.90 138.01 C 601.61 163.39 610.68 193.78 615.38 224.08 C 616.07 242.42 616.46 260.95 613.56 279.13 C 609.48 299.73 606.64 320.57 601.87 341.02 C 598.90 349.76 596.08 358.89 590.14 366.15 C 587.28 369.68 584.55 373.30 581.84 376.93 C 577.56 382.60 571.70 386.74 566.57 391.57 C 560.80 397.01 554.75 402.40 547.47 405.71 C 540.49 408.87 533.35 411.70 526.62 415.37 C 527.88 403.24 514.89 394.47 517.57 382.29 C 518.59 378.89 518.73 375.32 518.93 371.81 C 522.42 371.83 525.91 372.10 529.40 372.29 C 527.80 368.42 523.34 368.67 519.86 368.16 C 519.31 367.39 518.79 366.63 518.28 365.86 C 517.63 364.72 517.07 363.55 516.51 362.39 C 519.11 358.55 521.35 354.50 523.70 350.51 C 526.87 353.46 525.09 358.65 528.67 361.27 C 528.96 358.21 529.10 355.14 529.29 352.08 C 532.99 354.98 533.63 359.76 534.00 364.13 C 535.11 364.53 536.22 364.92 537.34 365.32 C 537.77 360.07 534.43 355.80 532.60 351.16 C 532.52 346.97 533.14 342.81 533.03 338.62 C 532.98 336.32 532.84 334.02 532.53 331.75 C 532.32 329.98 531.98 328.23 531.71 326.49 C 534.17 327.22 536.39 328.53 538.49 329.99 C 536.96 326.54 535.49 323.07 533.97 319.61 C 536.33 320.68 538.74 321.66 541.20 322.50 C 540.22 321.08 539.24 319.66 538.27 318.24 C 540.89 313.24 536.20 309.26 533.13 305.93 C 532.95 307.81 532.77 309.69 532.60 311.58 C 530.58 309.53 528.53 307.51 526.40 305.57 C 524.73 304.15 523.28 302.45 522.63 300.32 C 523.13 300.42 524.14 300.62 524.65 300.71 C 525.28 300.96 526.55 301.45 527.18 301.69 C 532.81 298.10 530.72 290.32 534.78 285.69 C 537.55 282.55 540.87 279.46 541.56 275.11 C 542.96 267.89 542.90 260.27 540.74 253.20 C 539.31 247.90 534.74 244.48 531.75 240.11 C 529.78 237.46 529.00 234.21 528.02 231.12 C 526.81 227.22 525.14 223.49 523.80 219.64 C 528.69 220.57 531.96 224.63 536.25 226.79 C 543.62 230.68 552.26 231.80 560.48 231.01 C 559.41 230.41 558.32 229.75 557.06 229.71 C 552.18 229.18 547.24 228.89 542.48 227.61 C 537.93 226.35 534.23 223.26 530.28 220.82 C 527.54 218.94 524.33 217.32 522.80 214.21 C 519.94 209.48 516.26 204.78 516.00 199.03 C 515.71 192.08 515.84 185.10 516.62 178.19 C 521.34 177.58 521.32 171.96 524.52 169.57 C 529.69 167.39 535.50 167.66 541.00 167.78 C 546.00 168.08 551.21 167.96 555.94 169.90 C 560.05 171.48 563.81 173.93 567.09 176.87 C 570.14 179.44 571.32 183.80 575.16 185.50 C 571.96 176.07 562.75 170.71 554.17 166.85 C 548.09 163.89 541.18 164.08 534.59 163.76 C 538.34 159.39 541.74 154.46 542.71 148.67 C 539.46 150.07 538.42 153.68 536.13 156.07 C 533.14 157.67 529.77 158.43 526.80 160.06 C 520.56 163.43 513.29 163.57 506.66 165.76 C 503.95 164.43 501.03 163.28 498.82 161.15 C 496.16 154.48 497.16 146.68 500.43 140.39 C 506.27 130.32 516.99 124.89 525.49 117.43 C 528.58 114.82 532.78 114.47 536.49 113.22 C 529.26 109.78 521.23 113.84 516.19 119.18 C 511.07 124.72 505.62 129.94 500.55 135.52 C 495.31 140.95 496.11 149.09 493.48 155.70 C 491.89 152.76 491.51 149.31 489.67 146.49 C 485.71 139.92 479.24 135.51 474.22 129.86 C 468.09 121.92 463.17 113.05 456.33 105.66 C 451.50 100.40 445.53 95.95 438.58 94.02 C 441.05 98.88 446.83 99.95 450.55 103.48 C 457.19 109.67 462.67 117.03 467.08 124.96 C 472.77 135.82 487.11 140.80 488.73 154.03 C 486.45 157.11 483.74 159.83 481.02 162.51 C 481.32 162.86 481.92 163.57 482.22 163.92 C 484.80 161.99 487.25 159.89 489.68 157.77 C 493.52 160.87 497.44 163.95 501.91 166.11 C 507.70 169.03 513.59 173.89 513.99 180.86 C 510.49 180.36 507.55 178.34 504.46 176.78 C 505.46 178.91 506.87 180.79 508.39 182.58 C 501.56 181.12 495.10 178.26 488.17 177.29 C 486.64 176.94 485.14 177.29 483.72 177.83 C 491.88 181.64 501.84 180.15 509.30 185.82 C 508.32 188.74 506.71 191.38 505.54 194.21 C 504.76 196.36 506.08 198.44 507.04 200.29 C 507.24 195.49 507.45 188.88 513.26 187.57 C 513.79 192.16 512.56 196.63 511.32 201.00 C 516.65 205.87 515.95 213.70 519.39 219.60 C 522.60 225.20 524.35 231.45 526.41 237.52 C 527.67 238.57 528.97 239.71 529.32 241.40 C 531.10 248.06 534.50 254.74 532.87 261.80 C 529.31 259.23 528.76 254.70 526.71 251.12 C 526.31 254.36 527.03 257.66 528.22 260.67 C 530.47 262.26 532.94 263.53 534.99 265.42 C 535.33 262.00 535.91 258.61 536.34 255.20 C 540.38 259.05 539.98 264.94 539.09 270.00 C 538.24 274.62 536.08 279.03 532.77 282.39 C 530.48 284.29 528.21 286.52 525.23 287.26 C 515.35 289.33 505.01 286.63 496.57 281.35 C 496.85 277.78 496.23 274.01 493.74 271.29 C 490.27 267.15 485.31 264.65 480.44 262.53 C 475.15 260.36 469.48 262.77 464.03 262.21 C 461.50 261.80 459.77 259.81 458.25 257.94 C 459.27 256.19 460.32 254.46 461.38 252.74 C 460.40 251.03 459.41 249.32 458.44 247.62 C 460.97 248.52 463.09 250.20 465.38 251.55 C 467.49 252.41 469.84 252.19 472.06 252.45 C 471.10 250.90 470.14 249.37 469.14 247.86 C 466.97 247.91 464.74 247.73 463.63 245.58 C 464.13 245.87 465.14 246.45 465.64 246.74 C 465.88 245.72 466.34 243.69 466.57 242.67 C 468.71 244.08 470.70 245.80 473.12 246.75 C 474.71 247.46 475.88 245.88 477.02 245.06 C 472.10 244.70 468.13 241.65 464.76 238.32 C 467.95 238.82 471.79 238.19 474.38 240.57 C 477.89 243.70 481.08 247.18 484.80 250.08 C 484.62 248.32 484.45 246.56 484.28 244.81 C 486.58 245.25 488.90 245.85 490.85 247.21 C 493.13 248.34 493.54 251.07 494.66 253.12 C 495.78 256.28 499.37 257.12 502.03 258.56 C 501.13 253.17 499.13 247.92 495.46 243.79 C 495.67 241.93 495.88 240.06 496.10 238.20 C 495.21 239.77 494.33 241.35 493.48 242.95 C 490.03 242.50 488.31 239.27 486.00 237.09 C 482.46 233.75 478.52 230.87 474.81 227.73 C 475.12 230.69 475.39 233.65 475.51 236.62 C 473.17 234.48 472.15 231.48 471.10 228.60 C 470.93 230.70 470.75 232.80 470.54 234.90 C 467.92 232.69 466.63 229.50 465.32 226.44 C 465.44 228.85 465.54 231.25 465.56 233.67 C 463.31 232.23 463.71 229.31 463.12 227.06 C 460.20 226.43 457.51 224.90 456.30 222.05 C 456.90 220.49 457.47 218.90 457.69 217.23 C 456.11 220.07 454.48 223.69 456.07 226.89 C 457.59 230.07 459.52 233.04 461.22 236.14 C 459.34 240.53 455.86 244.27 454.80 248.96 C 455.16 257.17 454.15 265.56 450.49 273.02 C 447.72 279.42 444.57 286.34 446.22 293.47 C 446.38 294.77 446.52 296.07 446.60 297.38 C 444.70 299.52 442.75 301.63 440.66 303.59 C 442.80 303.02 444.95 302.49 447.14 302.11 C 447.67 305.59 448.20 309.36 446.51 312.63 C 445.52 314.93 443.21 316.13 441.18 317.37 C 441.45 317.67 442.00 318.26 442.28 318.55 C 443.72 317.52 445.16 316.48 446.63 315.45 C 446.72 317.91 447.22 320.45 446.47 322.86 C 444.15 331.02 441.69 339.15 438.74 347.11 C 437.89 348.93 439.87 350.32 440.64 351.71 C 441.94 349.12 442.82 346.35 443.61 343.58 C 445.75 347.21 447.32 351.13 448.50 355.18 C 444.29 355.91 440.40 354.04 436.72 352.27 C 435.34 357.15 432.47 361.35 429.70 365.52 C 434.22 364.46 435.74 359.72 438.10 356.31 C 448.83 357.86 456.71 365.93 465.82 371.02 C 472.60 374.20 480.17 374.99 487.43 376.50 C 485.42 374.00 481.99 373.70 479.08 373.01 C 474.90 372.31 470.74 371.48 466.73 370.09 C 467.17 367.31 467.91 364.60 468.87 361.96 C 473.01 361.27 477.25 363.59 478.11 367.86 C 479.47 366.51 480.88 364.93 482.93 364.76 C 485.00 364.43 486.71 365.89 488.39 366.86 C 488.39 368.96 488.45 371.06 488.59 373.17 C 491.10 371.72 491.68 368.73 492.90 366.33 C 497.97 366.02 502.80 370.53 501.90 375.75 C 498.59 376.00 495.27 376.15 491.95 376.29 C 491.79 376.64 491.46 377.34 491.30 377.69 C 495.20 377.69 500.07 379.03 503.18 375.97 C 504.59 371.58 500.37 367.52 501.78 363.12 C 502.40 360.96 505.08 360.33 507.02 360.84 C 509.93 361.64 512.15 363.81 514.47 365.61 C 515.14 369.01 515.86 372.40 516.20 375.85 C 516.17 377.34 516.16 378.83 516.14 380.32 C 514.94 387.31 510.09 394.42 502.92 396.23 C 497.58 396.99 492.17 396.07 487.01 394.71 C 476.93 392.29 466.37 390.08 457.82 383.86 C 456.48 384.56 455.72 385.62 455.54 387.03 C 457.94 386.72 459.61 388.09 460.73 390.07 C 456.24 390.51 452.67 387.62 449.04 385.54 C 445.00 383.72 440.19 381.76 435.88 383.87 C 433.09 385.24 430.09 386.05 427.05 386.60 C 428.76 390.32 432.86 392.27 436.73 392.83 C 439.73 391.81 442.74 390.55 445.97 390.59 C 450.51 390.51 454.46 393.15 458.90 393.65 C 461.85 394.16 464.96 394.02 467.76 395.26 C 478.58 399.43 490.26 402.68 501.95 401.07 C 507.18 399.76 510.12 394.70 514.45 391.88 C 517.11 400.19 519.73 408.53 521.82 417.01 C 505.49 427.50 486.34 433.28 467.03 434.50 C 445.70 435.17 424.33 434.10 403.10 432.11 C 392.58 430.80 382.14 428.96 371.61 427.81 C 376.12 422.54 381.75 418.38 386.27 413.12 C 390.28 408.55 396.43 406.06 399.28 400.47 C 402.66 394.30 405.55 387.82 407.69 381.12 C 402.48 385.62 400.60 392.88 395.62 397.63 C 391.72 401.07 388.64 405.29 384.89 408.86 C 383.17 408.87 381.45 408.94 379.75 409.18 C 379.58 410.66 379.40 412.15 379.21 413.65 C 377.37 413.51 375.54 413.40 373.71 413.32 C 373.99 414.49 374.55 416.82 374.83 417.99 C 372.43 417.86 368.48 414.25 367.61 418.13 C 368.95 419.63 370.43 421.00 371.82 422.47 C 367.34 424.46 362.11 421.09 357.98 424.26 C 347.67 419.16 336.23 417.02 325.81 412.22 C 309.06 403.36 292.59 393.85 277.23 382.74 C 276.21 381.26 275.54 379.59 274.73 378.00 C 267.03 376.56 259.92 372.06 255.50 365.58 C 248.88 355.49 242.97 344.73 239.89 332.99 C 238.27 326.30 235.64 319.82 235.15 312.90 C 233.83 297.81 229.91 283.10 228.36 268.05 C 228.10 253.04 228.17 238.02 228.25 223.01 C 228.29 215.71 231.81 209.10 233.19 202.05 C 236.59 186.80 240.10 171.48 245.94 156.94 C 251.76 143.67 255.77 129.69 261.51 116.38 C 263.87 111.12 266.07 105.43 270.83 101.82 C 278.90 95.21 286.57 88.10 294.92 81.83 C 298.87 78.73 303.61 76.77 307.29 73.30 C 310.67 70.39 314.15 66.67 318.94 66.57 C 329.46 65.73 339.49 62.00 348.99 57.57 C 353.12 55.75 357.02 53.20 361.62 52.68 M 388.91 80.97 C 391.21 84.29 399.08 85.02 399.21 79.51 C 397.07 79.81 394.95 80.22 392.84 80.66 C 390.63 77.04 393.06 73.10 396.32 71.22 C 396.23 69.19 395.87 67.14 393.90 66.08 C 390.63 70.23 387.88 75.53 388.91 80.97 M 459.50 67.93 C 463.25 76.66 468.78 84.65 471.08 93.97 C 472.99 101.53 477.82 108.11 478.88 115.92 C 479.44 120.53 480.53 125.12 482.71 129.25 C 484.23 132.04 485.39 135.43 488.61 136.71 C 488.65 131.51 483.78 128.10 483.20 123.09 C 482.42 117.95 482.40 112.75 482.07 107.57 C 481.21 101.32 478.22 95.66 475.92 89.86 C 473.77 84.91 472.55 79.32 468.71 75.31 C 465.92 72.51 462.69 70.22 459.50 67.93 M 486.49 85.68 L 488.12 85.24 C 490.39 81.26 493.25 76.40 490.80 71.83 C 487.27 75.42 486.34 80.82 486.49 85.68 M 492.67 90.85 C 493.91 91.77 495.13 92.70 496.34 93.67 C 496.36 99.52 495.52 105.53 492.15 110.47 C 497.66 110.08 501.26 104.02 499.30 98.93 C 503.43 100.93 507.33 103.86 512.00 104.43 C 514.35 104.52 518.07 103.61 517.14 100.41 C 508.80 103.60 501.88 96.84 495.82 92.21 C 495.69 90.17 495.41 88.13 495.54 86.08 C 496.42 83.26 499.57 79.64 495.92 77.44 C 492.59 81.07 492.23 86.19 492.67 90.85 M 445.15 86.16 C 444.00 86.50 443.21 89.52 445.05 89.34 C 448.24 90.75 448.46 84.35 445.15 86.16 M 411.04 94.39 C 413.31 94.60 416.35 96.28 418.23 94.26 C 419.28 93.65 419.66 91.02 417.95 91.24 C 415.56 92.02 412.74 92.34 411.04 94.39 M 420.23 96.16 C 420.49 99.46 423.18 94.54 420.23 96.16 M 503.47 106.26 C 499.27 108.96 495.43 112.53 493.71 117.34 C 499.04 117.76 499.54 110.62 504.03 109.46 C 507.83 109.55 511.63 110.07 515.44 109.92 C 515.22 109.52 514.78 108.73 514.56 108.33 C 510.96 107.25 507.14 107.06 503.47 106.26 M 432.42 121.35 C 429.52 121.91 430.95 126.12 433.53 125.52 C 436.22 125.00 434.86 120.97 432.42 121.35 M 429.68 127.83 C 437.71 139.67 445.84 151.45 454.19 163.06 C 456.49 168.18 458.31 174.78 454.87 179.83 C 447.73 190.37 436.54 198.38 424.02 201.01 C 411.55 201.62 398.79 200.40 387.03 196.02 C 383.92 194.57 380.89 197.04 377.95 197.82 C 380.99 201.10 384.43 204.05 388.21 206.44 C 388.61 206.06 389.41 205.31 389.81 204.93 C 387.64 203.48 385.46 202.05 383.52 200.30 C 384.73 199.73 386.31 197.74 387.72 199.06 C 390.86 202.61 395.31 204.74 399.89 205.73 C 408.38 206.18 416.75 204.39 425.17 203.70 C 431.32 202.92 436.58 199.34 442.33 197.28 C 442.73 196.74 443.52 195.66 443.91 195.13 C 445.88 196.27 447.76 197.56 449.64 198.85 C 448.32 196.47 444.51 193.36 447.96 191.03 C 449.09 192.22 450.22 193.42 451.36 194.62 C 452.27 192.48 453.25 190.36 454.34 188.30 C 455.43 188.64 457.61 189.33 458.70 189.67 C 457.69 187.76 456.67 185.87 455.65 183.97 C 457.39 184.34 459.14 184.79 460.91 185.08 C 462.80 185.89 464.86 185.73 466.87 185.62 C 474.97 188.23 483.47 189.78 491.04 193.82 C 497.08 196.19 493.15 205.65 499.59 207.73 C 499.09 205.71 497.47 203.64 498.47 201.52 C 495.53 199.67 496.36 195.37 493.59 193.38 C 486.88 187.75 478.13 185.58 469.82 183.53 C 471.28 182.41 472.92 181.41 474.01 179.88 C 474.94 178.52 472.98 178.46 472.23 178.45 C 468.94 176.49 463.54 177.61 461.78 173.55 C 468.87 171.66 476.25 170.86 483.59 171.36 C 483.09 170.16 482.70 168.22 481.02 168.28 C 474.99 167.84 468.96 168.56 463.00 169.38 C 461.44 168.26 459.00 167.83 458.14 166.05 C 463.32 163.20 469.28 162.85 474.95 161.66 L 474.65 160.93 L 475.81 159.83 C 465.21 153.36 453.64 148.16 444.45 139.63 C 441.43 136.95 437.94 134.79 435.40 131.60 C 433.95 129.75 432.02 128.31 429.68 127.83 M 393.15 134.27 C 393.01 134.68 392.72 135.50 392.58 135.91 C 397.05 136.17 401.57 135.76 406.03 136.40 C 421.18 139.46 433.97 150.00 442.16 162.82 C 444.35 166.25 443.79 171.05 446.71 173.98 C 447.02 171.06 446.35 168.16 445.37 165.43 C 440.76 153.27 431.75 142.69 419.98 136.97 C 411.79 132.86 401.96 131.23 393.15 134.27 M 490.27 139.31 C 488.50 141.01 489.96 145.08 492.60 144.69 C 495.29 143.33 493.12 138.17 490.27 139.31 M 400.51 149.83 C 392.60 151.12 383.64 155.58 381.74 164.06 C 381.28 170.59 380.91 178.26 385.57 183.48 C 390.17 187.51 396.09 189.51 401.46 192.28 C 406.83 195.17 413.50 194.61 418.79 191.81 C 423.36 189.31 429.51 189.24 432.62 184.51 C 437.66 178.58 436.17 170.02 433.79 163.29 C 429.16 158.79 424.85 153.27 418.27 151.66 C 413.05 147.85 406.45 149.42 400.51 149.83 M 488.39 170.50 C 485.86 171.44 487.45 175.32 489.94 174.47 C 493.10 173.92 490.96 168.80 488.39 170.50 M 493.34 173.24 C 495.65 175.56 498.42 177.60 501.86 177.64 C 501.58 173.58 496.65 172.18 493.34 173.24 M 523.16 184.13 C 516.84 190.66 520.29 201.60 526.83 206.68 C 525.35 208.31 523.77 209.87 522.06 211.25 C 522.75 211.58 523.46 211.90 524.17 212.22 C 525.56 210.81 527.53 210.24 529.30 209.45 C 535.69 214.01 542.71 219.14 550.99 218.64 C 555.94 218.80 560.24 216.04 564.02 213.16 C 566.46 211.23 569.47 209.53 570.49 206.37 C 572.03 201.62 572.74 196.22 570.67 191.50 C 567.71 184.59 561.58 179.46 554.99 176.15 C 543.94 174.08 531.81 176.80 523.16 184.13 M 495.40 187.94 C 496.87 191.78 498.06 195.92 501.03 198.92 C 501.31 196.93 501.44 194.84 500.52 192.99 C 499.42 190.74 498.69 187.25 495.40 187.94 M 467.32 189.78 C 467.32 190.53 467.32 192.03 467.32 192.78 C 471.91 194.65 474.55 198.98 478.00 202.27 C 477.43 199.40 476.51 196.54 474.76 194.16 C 472.94 191.79 470.87 188.32 467.32 189.78 M 505.35 202.63 C 503.56 204.71 505.34 208.60 508.14 208.51 C 511.91 207.23 508.63 200.30 505.35 202.63 M 430.53 220.39 C 427.54 220.92 423.91 219.79 421.80 222.74 C 420.60 221.69 419.57 220.34 418.02 219.81 C 413.64 220.09 411.62 225.73 406.93 224.92 C 403.08 226.15 401.67 218.54 398.27 221.79 C 399.80 224.54 401.97 226.98 404.86 228.33 C 409.60 231.52 414.99 227.79 420.05 227.70 C 428.72 227.17 436.73 222.92 443.06 217.16 C 447.25 213.35 453.39 210.97 454.93 204.96 C 447.80 211.59 438.84 215.54 430.53 220.39 M 375.78 211.82 C 374.04 214.89 373.29 220.15 377.10 222.01 C 380.51 223.83 384.43 222.11 387.41 220.22 C 386.97 218.92 386.53 217.62 386.09 216.32 C 384.09 217.39 382.26 218.90 380.00 219.37 C 377.09 218.94 376.64 215.05 377.72 212.85 C 378.61 210.81 381.07 210.97 382.89 210.57 C 381.00 208.04 376.98 209.19 375.78 211.82 M 481.66 228.93 C 482.62 231.50 485.42 231.70 487.75 232.00 C 488.75 234.01 489.76 236.02 490.89 237.97 C 492.25 237.16 493.42 235.81 492.78 234.14 C 489.48 231.68 485.50 230.30 481.66 228.93 M 497.45 232.64 C 495.53 233.58 495.98 236.79 498.20 236.88 C 501.26 236.98 500.46 230.68 497.45 232.64 M 521.40 232.25 C 522.91 237.98 522.42 245.16 527.57 249.18 C 526.77 245.22 525.08 241.41 525.15 237.31 C 523.67 235.80 522.38 234.12 521.40 232.25 M 506.61 236.06 C 504.74 237.03 501.72 237.37 501.98 240.15 C 504.83 239.56 506.83 237.32 509.04 235.60 C 508.52 234.69 508.00 233.79 507.48 232.89 C 507.10 233.92 506.80 234.98 506.61 236.06 M 513.38 239.43 C 512.84 241.36 515.22 242.90 516.85 241.73 C 518.10 240.67 517.43 239.07 517.12 237.78 C 515.71 237.94 513.54 237.41 513.38 239.43 M 505.13 241.86 C 505.47 245.15 506.91 250.18 511.30 248.99 C 513.05 251.85 510.22 254.07 508.49 256.00 C 510.89 256.10 513.33 256.06 515.69 255.47 C 515.00 252.41 513.98 249.45 512.99 246.48 C 511.99 247.21 511.00 247.94 510.01 248.68 C 508.73 246.19 507.95 243.05 505.13 241.86 M 500.52 244.04 C 501.28 248.60 502.68 253.19 505.78 256.74 C 505.73 252.31 505.62 245.65 500.52 244.04 M 517.09 245.30 C 515.11 245.70 515.96 248.89 517.91 248.18 C 519.86 247.75 518.90 244.70 517.09 245.30 M 518.01 251.04 C 517.91 255.20 518.15 259.36 518.61 263.50 C 519.14 263.68 520.19 264.03 520.72 264.21 C 521.40 259.74 521.69 254.34 518.01 251.04 M 499.18 270.12 C 496.61 271.53 498.98 273.79 501.15 273.23 C 500.92 271.82 501.36 269.61 499.18 270.12 M 349.99 288.14 C 349.97 285.81 349.01 283.71 347.70 281.84 C 344.26 283.64 346.47 288.43 349.99 288.14 M 304.75 289.20 C 304.72 292.38 305.71 296.53 309.06 297.69 C 311.40 297.39 313.61 294.75 313.67 292.40 C 311.90 291.06 310.60 293.34 309.21 294.17 C 307.89 292.37 306.47 290.63 304.75 289.20 M 380.99 299.95 C 381.72 301.33 383.17 300.62 384.36 300.41 C 384.42 299.92 384.54 298.94 384.60 298.45 C 383.83 297.73 383.05 297.01 382.29 296.29 C 381.12 297.13 379.83 298.53 380.99 299.95 M 385.36 305.62 C 388.49 304.48 390.40 301.69 391.41 298.63 C 388.54 299.16 383.32 302.13 385.36 305.62 M 374.51 322.70 C 371.83 323.31 371.45 328.33 374.02 329.38 C 377.52 329.79 378.48 322.33 374.51 322.70 M 344.94 344.88 C 346.99 347.60 350.69 345.98 353.42 345.60 C 353.52 344.39 353.62 343.19 353.72 342.00 C 351.72 342.58 349.71 343.11 347.69 343.59 C 347.68 341.74 347.68 339.89 347.63 338.05 C 344.45 338.61 343.71 342.30 344.94 344.88 M 429.34 373.84 C 427.91 379.03 423.48 382.49 421.19 387.22 C 416.02 397.33 412.96 408.45 411.49 419.68 C 414.64 418.45 415.42 414.79 417.50 412.43 C 421.06 408.03 423.87 402.84 428.57 399.52 C 431.54 397.25 431.64 391.89 427.50 390.90 C 426.11 395.80 424.17 403.08 417.56 402.20 C 419.02 397.40 421.24 392.88 423.36 388.35 C 425.74 383.11 430.41 379.33 432.54 373.94 C 431.74 373.92 430.14 373.86 429.34 373.84 M 444.95 373.72 C 446.26 378.72 451.12 381.24 454.65 384.52 C 455.32 384.27 456.65 383.78 457.32 383.53 C 453.28 380.16 449.17 376.86 444.95 373.72 M 420.60 424.71 C 422.51 426.21 424.67 427.61 427.25 427.21 C 425.77 425.14 424.58 422.89 423.96 420.42 C 422.81 421.83 421.69 423.26 420.60 424.71 Z" />
<path fill="#0c0c0c" opacity="1.00" d=" M 388.91 80.97 C 387.88 75.53 390.63 70.23 393.90 66.08 C 395.87 67.14 396.23 69.19 396.32 71.22 C 393.06 73.10 390.63 77.04 392.84 80.66 C 394.95 80.22 397.07 79.81 399.21 79.51 C 399.08 85.02 391.21 84.29 388.91 80.97 Z" />
<path fill="#030303" opacity="1.00" d=" M 459.50 67.93 C 462.69 70.22 465.92 72.51 468.71 75.31 C 472.55 79.32 473.77 84.91 475.92 89.86 C 478.22 95.66 481.21 101.32 482.07 107.57 C 482.40 112.75 482.42 117.95 483.20 123.09 C 483.78 128.10 488.65 131.51 488.61 136.71 C 485.39 135.43 484.23 132.04 482.71 129.25 C 480.53 125.12 479.44 120.53 478.88 115.92 C 477.82 108.11 472.99 101.53 471.08 93.97 C 468.78 84.65 463.25 76.66 459.50 67.93 Z" />
<path fill="#080808" opacity="1.00" d=" M 486.49 85.68 C 486.34 80.82 487.27 75.42 490.80 71.83 C 493.25 76.40 490.39 81.26 488.12 85.24 L 486.49 85.68 Z" />
<path fill="#1f1f1f" opacity="1.00" d=" M 492.67 90.85 C 492.23 86.19 492.59 81.07 495.92 77.44 C 499.57 79.64 496.42 83.26 495.54 86.08 C 495.41 88.13 495.69 90.17 495.82 92.21 C 501.88 96.84 508.80 103.60 517.14 100.41 C 518.07 103.61 514.35 104.52 512.00 104.43 C 507.33 103.86 503.43 100.93 499.30 98.93 C 501.26 104.02 497.66 110.08 492.15 110.47 C 495.52 105.53 496.36 99.52 496.34 93.67 C 495.13 92.70 493.91 91.77 492.67 90.85 Z" />
<path fill="#afafaf" opacity="1.00" d=" M 445.15 86.16 C 448.46 84.35 448.24 90.75 445.05 89.34 C 443.21 89.52 444.00 86.50 445.15 86.16 Z" />
<path fill="#212121" opacity="1.00" d=" M 411.04 94.39 C 412.74 92.34 415.56 92.02 417.95 91.24 C 419.66 91.02 419.28 93.65 418.23 94.26 C 416.35 96.28 413.31 94.60 411.04 94.39 Z" />
<path fill="#040404" opacity="1.00" d=" M 438.58 94.02 C 445.53 95.95 451.50 100.40 456.33 105.66 C 463.17 113.05 468.09 121.92 474.22 129.86 C 479.24 135.51 485.71 139.92 489.67 146.49 C 491.51 149.31 491.89 152.76 493.48 155.70 C 496.11 149.09 495.31 140.95 500.55 135.52 C 505.62 129.94 511.07 124.72 516.19 119.18 C 521.23 113.84 529.26 109.78 536.49 113.22 C 532.78 114.47 528.58 114.82 525.49 117.43 C 516.99 124.89 506.27 130.32 500.43 140.39 C 497.16 146.68 496.16 154.48 498.82 161.15 C 501.03 163.28 503.95 164.43 506.66 165.76 C 513.29 163.57 520.56 163.43 526.80 160.06 C 529.77 158.43 533.14 157.67 536.13 156.07 C 538.42 153.68 539.46 150.07 542.71 148.67 C 541.74 154.46 538.34 159.39 534.59 163.76 C 541.18 164.08 548.09 163.89 554.17 166.85 C 562.75 170.71 571.96 176.07 575.16 185.50 C 571.32 183.80 570.14 179.44 567.09 176.87 C 563.81 173.93 560.05 171.48 555.94 169.90 C 551.21 167.96 546.00 168.08 541.00 167.78 C 535.50 167.66 529.69 167.39 524.52 169.57 C 521.32 171.96 521.34 177.58 516.62 178.19 C 515.84 185.10 515.71 192.08 516.00 199.03 C 516.26 204.78 519.94 209.48 522.80 214.21 C 524.33 217.32 527.54 218.94 530.28 220.82 C 534.23 223.26 537.93 226.35 542.48 227.61 C 547.24 228.89 552.18 229.18 557.06 229.71 C 558.32 229.75 559.41 230.41 560.48 231.01 C 552.26 231.80 543.62 230.68 536.25 226.79 C 531.96 224.63 528.69 220.57 523.80 219.64 C 525.14 223.49 526.81 227.22 528.02 231.12 C 529.00 234.21 529.78 237.46 531.75 240.11 C 534.74 244.48 539.31 247.90 540.74 253.20 C 539.18 253.57 537.63 253.94 536.08 254.31 C 536.15 254.53 536.28 254.98 536.34 255.20 C 535.91 258.61 535.33 262.00 534.99 265.42 C 532.94 263.53 530.47 262.26 528.22 260.67 C 527.03 257.66 526.31 254.36 526.71 251.12 C 528.76 254.70 529.31 259.23 532.87 261.80 C 534.50 254.74 531.10 248.06 529.32 241.40 C 528.97 239.71 527.67 238.57 526.41 237.52 C 524.35 231.45 522.60 225.20 519.39 219.60 C 515.95 213.70 516.65 205.87 511.32 201.00 C 512.56 196.63 513.79 192.16 513.26 187.57 C 507.45 188.88 507.24 195.49 507.04 200.29 C 506.08 198.44 504.76 196.36 505.54 194.21 C 506.71 191.38 508.32 188.74 509.30 185.82 C 501.84 180.15 491.88 181.64 483.72 177.83 C 485.14 177.29 486.64 176.94 488.17 177.29 C 495.10 178.26 501.56 181.12 508.39 182.58 C 506.87 180.79 505.46 178.91 504.46 176.78 C 507.55 178.34 510.49 180.36 513.99 180.86 C 513.59 173.89 507.70 169.03 501.91 166.11 C 497.44 163.95 493.52 160.87 489.68 157.77 C 487.25 159.89 484.80 161.99 482.22 163.92 C 481.92 163.57 481.32 162.86 481.02 162.51 C 483.74 159.83 486.45 157.11 488.73 154.03 C 487.11 140.80 472.77 135.82 467.08 124.96 C 462.67 117.03 457.19 109.67 450.55 103.48 C 446.83 99.95 441.05 98.88 438.58 94.02 Z" />
<path fill="#d8d8d8" opacity="1.00" d=" M 420.23 96.16 C 423.18 94.54 420.49 99.46 420.23 96.16 Z" />
<path fill="#040404" opacity="1.00" d=" M 503.47 106.26 C 507.14 107.06 510.96 107.25 514.56 108.33 C 514.78 108.73 515.22 109.52 515.44 109.92 C 511.63 110.07 507.83 109.55 504.03 109.46 C 499.54 110.62 499.04 117.76 493.71 117.34 C 495.43 112.53 499.27 108.96 503.47 106.26 Z" />
<path fill="#383838" opacity="1.00" d=" M 432.42 121.35 C 434.86 120.97 436.22 125.00 433.53 125.52 C 430.95 126.12 429.52 121.91 432.42 121.35 Z" />
<path fill="#070707" opacity="1.00" d=" M 429.68 127.83 C 432.02 128.31 433.95 129.75 435.40 131.60 C 437.94 134.79 441.43 136.95 444.45 139.63 C 453.64 148.16 465.21 153.36 475.81 159.83 L 474.65 160.93 C 469.15 162.19 463.46 161.51 457.88 162.05 C 457.94 163.38 458.03 164.71 458.14 166.05 C 459.00 167.83 461.44 168.26 463.00 169.38 C 468.96 168.56 474.99 167.84 481.02 168.28 C 482.70 168.22 483.09 170.16 483.59 171.36 C 476.25 170.86 468.87 171.66 461.78 173.55 C 463.54 177.61 468.94 176.49 472.23 178.45 C 469.40 179.14 466.60 179.94 463.80 180.73 C 463.67 182.27 463.54 183.81 463.44 185.36 C 462.80 185.29 461.54 185.15 460.91 185.08 C 459.14 184.79 457.39 184.34 455.65 183.97 C 456.67 185.87 457.69 187.76 458.70 189.67 C 457.61 189.33 455.43 188.64 454.34 188.30 C 453.25 190.36 452.27 192.48 451.36 194.62 C 450.22 193.42 449.09 192.22 447.96 191.03 C 444.51 193.36 448.32 196.47 449.64 198.85 C 447.76 197.56 445.88 196.27 443.91 195.13 C 443.52 195.66 442.73 196.74 442.33 197.28 C 436.58 199.34 431.32 202.92 425.17 203.70 C 416.75 204.39 408.38 206.18 399.89 205.73 C 395.31 204.74 390.86 202.61 387.72 199.06 C 386.31 197.74 384.73 199.73 383.52 200.30 C 385.46 202.05 387.64 203.48 389.81 204.93 C 389.41 205.31 388.61 206.06 388.21 206.44 C 384.43 204.05 380.99 201.10 377.95 197.82 C 380.89 197.04 383.92 194.57 387.03 196.02 C 398.79 200.40 411.55 201.62 424.02 201.01 C 436.54 198.38 447.73 190.37 454.87 179.83 C 458.31 174.78 456.49 168.18 454.19 163.06 C 445.84 151.45 437.71 139.67 429.68 127.83 Z" />
<path fill="#0c0c0c" opacity="1.00" d=" M 393.15 134.27 C 401.96 131.23 411.79 132.86 419.98 136.97 C 431.75 142.69 440.76 153.27 445.37 165.43 C 446.35 168.16 447.02 171.06 446.71 173.98 C 443.79 171.05 444.35 166.25 442.16 162.82 C 433.97 150.00 421.18 139.46 406.03 136.40 C 401.57 135.76 397.05 136.17 392.58 135.91 C 392.72 135.50 393.01 134.68 393.15 134.27 Z" />
<path fill="#0e0e0e" opacity="1.00" d=" M 490.27 139.31 C 493.12 138.17 495.29 143.33 492.60 144.69 C 489.96 145.08 488.50 141.01 490.27 139.31 Z" />
<path fill="#0b0b0b" opacity="1.00" d=" M 400.51 149.83 C 406.45 149.42 413.05 147.85 418.27 151.66 C 424.85 153.27 429.16 158.79 433.79 163.29 C 436.17 170.02 437.66 178.58 432.62 184.51 C 429.51 189.24 423.36 189.31 418.79 191.81 C 413.50 194.61 406.83 195.17 401.46 192.28 C 396.09 189.51 390.17 187.51 385.57 183.48 C 380.91 178.26 381.28 170.59 381.74 164.06 C 383.64 155.58 392.60 151.12 400.51 149.83 M 387.39 160.43 C 384.03 166.58 381.65 174.78 385.82 181.12 C 390.04 185.95 396.72 187.27 401.74 191.03 C 402.29 189.23 402.71 187.35 403.70 185.71 C 403.82 187.44 403.90 189.17 403.93 190.90 C 405.74 190.83 407.55 190.76 409.37 190.70 C 409.49 188.70 409.61 186.71 409.79 184.73 C 410.93 186.49 411.77 188.45 413.09 190.09 C 416.05 190.59 418.87 188.93 421.81 188.69 C 424.10 188.21 428.35 187.46 426.85 184.14 C 424.60 181.23 420.20 181.31 417.90 178.36 C 422.55 178.26 426.07 181.60 429.89 183.73 C 432.55 182.05 434.37 179.16 434.13 175.93 C 433.84 171.95 434.70 167.27 431.78 164.06 C 428.94 160.60 425.67 157.39 421.89 154.96 C 417.37 153.75 412.72 152.85 408.07 152.34 C 400.36 151.40 392.69 155.01 387.39 160.43 Z" />
<path fill="#fdfdfd" opacity="1.00" d=" M 387.39 160.43 C 392.69 155.01 400.36 151.40 408.07 152.34 C 412.72 152.85 417.37 153.75 421.89 154.96 C 425.67 157.39 428.94 160.60 431.78 164.06 C 434.70 167.27 433.84 171.95 434.13 175.93 C 434.37 179.16 432.55 182.05 429.89 183.73 C 426.07 181.60 422.55 178.26 417.90 178.36 C 420.20 181.31 424.60 181.23 426.85 184.14 C 428.35 187.46 424.10 188.21 421.81 188.69 C 418.87 188.93 416.05 190.59 413.09 190.09 C 411.77 188.45 410.93 186.49 409.79 184.73 C 409.61 186.71 409.49 188.70 409.37 190.70 C 407.55 190.76 405.74 190.83 403.93 190.90 C 403.90 189.17 403.82 187.44 403.70 185.71 C 402.71 187.35 402.29 189.23 401.74 191.03 C 396.72 187.27 390.04 185.95 385.82 181.12 C 381.65 174.78 384.03 166.58 387.39 160.43 M 399.47 161.37 C 392.23 167.54 397.89 180.94 406.93 181.46 C 414.20 180.36 420.70 172.17 416.96 164.94 C 415.71 165.27 414.45 165.61 413.21 165.96 C 412.69 164.04 412.15 162.13 411.62 160.22 C 407.68 158.70 402.73 158.15 399.47 161.37 Z" />
<path fill="#050505" opacity="1.00" d=" M 399.47 161.37 C 402.73 158.15 407.68 158.70 411.62 160.22 C 412.15 162.13 412.69 164.04 413.21 165.96 C 414.45 165.61 415.71 165.27 416.96 164.94 C 420.70 172.17 414.20 180.36 406.93 181.46 C 397.89 180.94 392.23 167.54 399.47 161.37 Z" />
<path fill="#666666" opacity="1.00" d=" M 457.88 162.05 C 463.46 161.51 469.15 162.19 474.65 160.93 L 474.95 161.66 C 469.28 162.85 463.32 163.20 458.14 166.05 C 458.03 164.71 457.94 163.38 457.88 162.05 Z" />
<path fill="#c1c1c1" opacity="1.00" d=" M 488.39 170.50 C 490.96 168.80 493.10 173.92 489.94 174.47 C 487.45 175.32 485.86 171.44 488.39 170.50 Z" />
<path fill="#0a0a0a" opacity="1.00" d=" M 493.34 173.24 C 496.65 172.18 501.58 173.58 501.86 177.64 C 498.42 177.60 495.65 175.56 493.34 173.24 Z" />
<path fill="#050505" opacity="1.00" d=" M 523.16 184.13 C 531.81 176.80 543.94 174.08 554.99 176.15 C 561.58 179.46 567.71 184.59 570.67 191.50 C 572.74 196.22 572.03 201.62 570.49 206.37 C 569.47 209.53 566.46 211.23 564.02 213.16 C 560.24 216.04 555.94 218.80 550.99 218.64 C 542.71 219.14 535.69 214.01 529.30 209.45 C 527.53 210.24 525.56 210.81 524.17 212.22 C 523.46 211.90 522.75 211.58 522.06 211.25 C 523.77 209.87 525.35 208.31 526.83 206.68 C 520.29 201.60 516.84 190.66 523.16 184.13 M 532.79 181.45 C 535.24 185.90 540.55 188.34 541.57 193.65 C 540.99 193.64 539.83 193.61 539.25 193.59 C 539.13 188.51 534.14 185.82 529.92 184.41 C 527.51 183.09 525.75 185.82 524.54 187.50 C 521.86 191.38 522.20 197.10 526.05 200.10 C 527.16 197.90 527.48 195.44 528.35 193.15 C 528.90 195.53 530.36 197.47 531.93 199.28 C 529.66 200.30 527.38 201.30 525.10 202.31 C 527.44 205.72 530.38 208.92 534.31 210.48 C 535.81 209.92 536.43 208.11 537.45 206.94 C 537.26 208.88 537.18 210.82 537.20 212.78 C 538.82 213.66 540.43 214.62 542.00 215.62 C 545.09 214.44 547.32 210.59 550.89 211.23 C 549.53 213.07 545.83 213.62 546.46 216.47 C 555.18 218.99 563.00 212.46 568.61 206.57 C 570.36 201.99 570.33 196.74 568.91 192.07 C 567.51 187.33 563.57 184.00 559.61 181.38 C 551.46 176.62 541.09 177.51 532.79 181.45 Z" />
<path fill="#828282" opacity="1.00" d=" M 472.23 178.45 C 472.98 178.46 474.94 178.52 474.01 179.88 C 472.92 181.41 471.28 182.41 469.82 183.53 C 468.67 183.98 467.66 184.68 466.87 185.62 C 464.86 185.73 462.80 185.89 460.91 185.08 C 461.54 185.15 462.80 185.29 463.44 185.36 C 463.54 183.81 463.67 182.27 463.80 180.73 C 466.60 179.94 469.40 179.14 472.23 178.45 Z" />
<path fill="#fcfcfc" opacity="1.00" d=" M 532.79 181.45 C 541.09 177.51 551.46 176.62 559.61 181.38 C 563.57 184.00 567.51 187.33 568.91 192.07 C 570.33 196.74 570.36 201.99 568.61 206.57 C 563.00 212.46 555.18 218.99 546.46 216.47 C 545.83 213.62 549.53 213.07 550.89 211.23 C 547.32 210.59 545.09 214.44 542.00 215.62 C 540.43 214.62 538.82 213.66 537.20 212.78 C 537.18 210.82 537.26 208.88 537.45 206.94 C 536.43 208.11 535.81 209.92 534.31 210.48 C 530.38 208.92 527.44 205.72 525.10 202.31 C 527.38 201.30 529.66 200.30 531.93 199.28 C 530.36 197.47 528.90 195.53 528.35 193.15 C 527.48 195.44 527.16 197.90 526.05 200.10 C 522.20 197.10 521.86 191.38 524.54 187.50 C 525.75 185.82 527.51 183.09 529.92 184.41 C 534.14 185.82 539.13 188.51 539.25 193.59 C 539.83 193.61 540.99 193.64 541.57 193.65 C 540.55 188.34 535.24 185.90 532.79 181.45 M 542.12 192.62 C 542.43 192.85 543.05 193.31 543.36 193.54 C 541.91 197.11 541.98 201.20 543.58 204.72 C 547.62 208.18 553.85 208.57 558.61 206.37 C 562.25 204.00 563.86 199.56 564.19 195.39 C 562.15 195.77 560.11 196.14 558.07 196.43 C 559.00 194.81 560.94 194.45 562.49 193.73 C 560.17 189.27 554.67 187.19 549.87 188.23 C 546.85 188.75 544.58 190.99 542.12 192.62 Z" />
<path fill="#0d0d0d" opacity="1.00" d=" M 466.87 185.62 C 467.66 184.68 468.67 183.98 469.82 183.53 C 478.13 185.58 486.88 187.75 493.59 193.38 C 496.36 195.37 495.53 199.67 498.47 201.52 C 497.47 203.64 499.09 205.71 499.59 207.73 C 493.15 205.65 497.08 196.19 491.04 193.82 C 483.47 189.78 474.97 188.23 466.87 185.62 Z" />
<path fill="#0d0d0d" opacity="1.00" d=" M 495.40 187.94 C 498.69 187.25 499.42 190.74 500.52 192.99 C 501.44 194.84 501.31 196.93 501.03 198.92 C 498.06 195.92 496.87 191.78 495.40 187.94 Z" />
<path fill="#040404" opacity="1.00" d=" M 542.12 192.62 C 544.58 190.99 546.85 188.75 549.87 188.23 C 554.67 187.19 560.17 189.27 562.49 193.73 C 560.94 194.45 559.00 194.81 558.07 196.43 C 560.11 196.14 562.15 195.77 564.19 195.39 C 563.86 199.56 562.25 204.00 558.61 206.37 C 553.85 208.57 547.62 208.18 543.58 204.72 C 541.98 201.20 541.91 197.11 543.36 193.54 C 543.05 193.31 542.43 192.85 542.12 192.62 Z" />
<path fill="#030303" opacity="1.00" d=" M 467.32 189.78 C 470.87 188.32 472.94 191.79 474.76 194.16 C 476.51 196.54 477.43 199.40 478.00 202.27 C 474.55 198.98 471.91 194.65 467.32 192.78 C 467.32 192.03 467.32 190.53 467.32 189.78 Z" />
<path fill="#383838" opacity="1.00" d=" M 505.35 202.63 C 508.63 200.30 511.91 207.23 508.14 208.51 C 505.34 208.60 503.56 204.71 505.35 202.63 Z" />
<path fill="#050505" opacity="1.00" d=" M 430.53 220.39 C 438.84 215.54 447.80 211.59 454.93 204.96 C 453.39 210.97 447.25 213.35 443.06 217.16 C 436.73 222.92 428.72 227.17 420.05 227.70 C 414.99 227.79 409.60 231.52 404.86 228.33 C 401.97 226.98 399.80 224.54 398.27 221.79 C 401.67 218.54 403.08 226.15 406.93 224.92 C 411.62 225.73 413.64 220.09 418.02 219.81 C 419.57 220.34 420.60 221.69 421.80 222.74 C 423.91 219.79 427.54 220.92 430.53 220.39 Z" />
<path fill="#0f0f0f" opacity="1.00" d=" M 375.78 211.82 C 376.98 209.19 381.00 208.04 382.89 210.57 C 381.07 210.97 378.61 210.81 377.72 212.85 C 376.64 215.05 377.09 218.94 380.00 219.37 C 382.26 218.90 384.09 217.39 386.09 216.32 C 386.53 217.62 386.97 218.92 387.41 220.22 C 384.43 222.11 380.51 223.83 377.10 222.01 C 373.29 220.15 374.04 214.89 375.78 211.82 Z" />
<path fill="#050505" opacity="1.00" d=" M 457.69 217.23 C 457.47 218.90 456.90 220.49 456.30 222.05 C 457.51 224.90 460.20 226.43 463.12 227.06 C 463.71 229.31 463.31 232.23 465.56 233.67 C 465.54 231.25 465.44 228.85 465.32 226.44 C 466.63 229.50 467.92 232.69 470.54 234.90 C 470.75 232.80 470.93 230.70 471.10 228.60 C 472.15 231.48 473.17 234.48 475.51 236.62 C 475.39 233.65 475.12 230.69 474.81 227.73 C 478.52 230.87 482.46 233.75 486.00 237.09 C 488.31 239.27 490.03 242.50 493.48 242.95 C 494.33 241.35 495.21 239.77 496.10 238.20 C 495.88 240.06 495.67 241.93 495.46 243.79 C 499.13 247.92 501.13 253.17 502.03 258.56 C 499.37 257.12 495.78 256.28 494.66 253.12 C 493.54 251.07 493.13 248.34 490.85 247.21 C 488.90 245.85 486.58 245.25 484.28 244.81 C 484.45 246.56 484.62 248.32 484.80 250.08 C 481.08 247.18 477.89 243.70 474.38 240.57 C 471.79 238.19 467.95 238.82 464.76 238.32 C 468.13 241.65 472.10 244.70 477.02 245.06 C 475.88 245.88 474.71 247.46 473.12 246.75 C 470.70 245.80 468.71 244.08 466.57 242.67 C 466.34 243.69 465.88 245.72 465.64 246.74 C 465.14 246.45 464.13 245.87 463.63 245.58 C 461.77 243.61 458.83 244.29 457.99 246.86 C 458.10 247.05 458.33 247.43 458.44 247.62 C 459.41 249.32 460.40 251.03 461.38 252.74 C 460.32 254.46 459.27 256.19 458.25 257.94 C 459.77 259.81 461.50 261.80 464.03 262.21 C 469.48 262.77 475.15 260.36 480.44 262.53 C 485.31 264.65 490.27 267.15 493.74 271.29 C 496.23 274.01 496.85 277.78 496.57 281.35 C 505.01 286.63 515.35 289.33 525.23 287.26 C 528.21 286.52 530.48 284.29 532.77 282.39 C 533.44 283.49 534.10 284.59 534.78 285.69 C 530.72 290.32 532.81 298.10 527.18 301.69 C 526.55 301.45 525.28 300.96 524.65 300.71 C 524.24 298.43 526.02 296.54 526.82 294.55 C 524.03 296.72 521.77 299.44 519.58 302.19 C 515.38 298.43 510.02 294.33 504.02 295.76 C 501.42 296.20 500.33 298.91 498.78 300.71 C 493.33 300.53 487.44 302.08 482.37 299.45 C 486.46 298.54 490.62 299.43 494.74 299.70 C 495.35 296.71 496.11 293.73 496.21 290.68 C 494.29 288.01 491.28 286.45 488.88 284.27 C 489.02 283.99 489.29 283.43 489.42 283.15 C 491.71 284.10 494.03 285.03 496.35 285.92 C 494.25 281.04 492.23 276.05 489.12 271.70 C 483.95 266.14 475.55 261.22 468.06 265.33 C 464.65 265.55 461.25 265.75 457.85 265.88 C 456.10 268.05 454.62 270.44 453.38 272.93 C 452.65 272.96 451.21 273.00 450.49 273.02 C 454.15 265.56 455.16 257.17 454.80 248.96 C 455.86 244.27 459.34 240.53 461.22 236.14 C 459.52 233.04 457.59 230.07 456.07 226.89 C 454.48 223.69 456.11 220.07 457.69 217.23 M 479.26 234.27 C 477.99 234.98 478.01 235.65 479.32 236.30 C 480.60 235.58 480.58 234.91 479.26 234.27 M 481.55 237.46 C 479.59 238.81 482.20 241.38 483.65 239.55 C 485.62 238.87 482.38 235.79 481.55 237.46 Z" />
<path fill="#050505" opacity="1.00" d=" M 481.66 228.93 C 485.50 230.30 489.48 231.68 492.78 234.14 C 493.42 235.81 492.25 237.16 490.89 237.97 C 489.76 236.02 488.75 234.01 487.75 232.00 C 485.42 231.70 482.62 231.50 481.66 228.93 Z" />
<path fill="#3a3a3a" opacity="1.00" d=" M 497.45 232.64 C 500.46 230.68 501.26 236.98 498.20 236.88 C 495.98 236.79 495.53 233.58 497.45 232.64 Z" />
<path fill="#040404" opacity="1.00" d=" M 521.40 232.25 C 522.38 234.12 523.67 235.80 525.15 237.31 C 525.08 241.41 526.77 245.22 527.57 249.18 C 522.42 245.16 522.91 237.98 521.40 232.25 Z" />
<path fill="#5a5a5a" opacity="1.00" d=" M 506.61 236.06 C 506.80 234.98 507.10 233.92 507.48 232.89 C 508.00 233.79 508.52 234.69 509.04 235.60 C 506.83 237.32 504.83 239.56 501.98 240.15 C 501.72 237.37 504.74 237.03 506.61 236.06 Z" />
<path fill="#e0dbdc" opacity="1.00" d=" M 479.26 234.27 C 480.58 234.91 480.60 235.58 479.32 236.30 C 478.01 235.65 477.99 234.98 479.26 234.27 Z" />
<path fill="#a7a7a7" opacity="1.00" d=" M 481.55 237.46 C 482.38 235.79 485.62 238.87 483.65 239.55 C 482.20 241.38 479.59 238.81 481.55 237.46 Z" />
<path fill="#dadada" opacity="1.00" d=" M 513.38 239.43 C 513.54 237.41 515.71 237.94 517.12 237.78 C 517.43 239.07 518.10 240.67 516.85 241.73 C 515.22 242.90 512.84 241.36 513.38 239.43 Z" />
<path fill="#1f1f1f" opacity="1.00" d=" M 505.13 241.86 C 507.95 243.05 508.73 246.19 510.01 248.68 C 511.00 247.94 511.99 247.21 512.99 246.48 C 513.98 249.45 515.00 252.41 515.69 255.47 C 513.33 256.06 510.89 256.10 508.49 256.00 C 510.22 254.07 513.05 251.85 511.30 248.99 C 506.91 250.18 505.47 245.15 505.13 241.86 Z" />
<path fill="#767676" opacity="1.00" d=" M 457.99 246.86 C 458.83 244.29 461.77 243.61 463.63 245.58 C 464.74 247.73 466.97 247.91 469.14 247.86 C 470.14 249.37 471.10 250.90 472.06 252.45 C 469.84 252.19 467.49 252.41 465.38 251.55 C 463.09 250.20 460.97 248.52 458.44 247.62 C 458.33 247.43 458.10 247.05 457.99 246.86 Z" />
<path fill="#1f1f1f" opacity="1.00" d=" M 500.52 244.04 C 505.62 245.65 505.73 252.31 505.78 256.74 C 502.68 253.19 501.28 248.60 500.52 244.04 Z" />
<path fill="#aaaaaa" opacity="1.00" d=" M 517.09 245.30 C 518.90 244.70 519.86 247.75 517.91 248.18 C 515.96 248.89 515.11 245.70 517.09 245.30 Z" />
<path fill="#212121" opacity="1.00" d=" M 518.01 251.04 C 521.69 254.34 521.40 259.74 520.72 264.21 C 520.19 264.03 519.14 263.68 518.61 263.50 C 518.15 259.36 517.91 255.20 518.01 251.04 Z" />
<path fill="#585858" opacity="1.00" d=" M 540.74 253.20 C 542.90 260.27 542.96 267.89 541.56 275.11 C 540.87 279.46 537.55 282.55 534.78 285.69 C 534.10 284.59 533.44 283.49 532.77 282.39 C 536.08 279.03 538.24 274.62 539.09 270.00 C 539.98 264.94 540.38 259.05 536.34 255.20 C 536.28 254.98 536.15 254.53 536.08 254.31 C 537.63 253.94 539.18 253.57 540.74 253.20 Z" />
<path fill="#616161" opacity="1.00" d=" M 468.06 265.33 C 475.55 261.22 483.95 266.14 489.12 271.70 C 486.90 271.89 484.67 272.08 482.45 272.19 C 477.57 270.08 472.54 268.23 468.06 265.33 Z" />
<path fill="#fdfdfd" opacity="1.00" d=" M 453.38 272.93 C 454.62 270.44 456.10 268.05 457.85 265.88 C 461.25 265.75 464.65 265.55 468.06 265.33 C 472.54 268.23 477.57 270.08 482.45 272.19 C 485.47 274.67 488.49 277.16 491.31 279.87 C 490.66 280.95 490.03 282.04 489.42 283.15 C 489.29 283.43 489.02 283.99 488.88 284.27 C 491.28 286.45 494.29 288.01 496.21 290.68 C 496.11 293.73 495.35 296.71 494.74 299.70 C 490.62 299.43 486.46 298.54 482.37 299.45 C 478.63 301.03 475.49 303.92 473.88 307.69 C 477.70 306.20 481.05 303.60 485.05 302.54 C 490.30 301.64 495.65 303.32 500.23 305.84 C 505.23 309.22 511.38 309.77 517.25 309.63 C 520.39 312.89 524.79 315.38 526.31 319.88 C 525.67 326.25 529.08 332.80 526.34 338.92 C 524.24 341.70 521.34 344.46 521.80 348.28 C 520.04 348.95 518.27 349.58 516.52 350.24 C 516.45 352.01 519.02 355.48 516.03 355.82 C 514.77 354.98 513.66 353.94 512.53 352.96 C 511.35 354.41 510.17 355.85 508.99 357.30 C 505.83 356.30 502.68 355.28 499.55 354.23 C 499.82 351.18 499.21 348.01 496.33 346.41 C 495.47 343.77 495.07 340.56 492.26 339.26 C 492.18 342.14 492.08 345.02 491.52 347.85 C 489.77 346.92 487.45 346.26 486.91 344.07 C 486.15 340.97 486.62 337.72 486.59 334.56 C 489.62 333.80 492.56 334.79 495.09 336.48 C 496.40 336.15 497.73 335.82 499.05 335.50 C 500.31 338.17 503.15 340.82 501.94 343.99 C 501.48 345.69 500.81 347.32 500.21 348.99 C 503.17 350.82 505.94 352.91 508.72 355.00 C 511.62 350.87 513.36 346.10 514.65 341.25 C 512.39 338.91 511.59 335.71 510.21 332.86 C 511.69 332.81 513.45 332.26 514.64 333.52 C 516.69 335.28 516.53 338.20 516.95 340.64 C 518.37 335.11 519.93 329.31 518.62 323.60 C 515.19 322.13 511.75 320.69 508.40 319.06 C 508.89 317.32 509.38 315.59 509.88 313.86 C 504.05 312.74 497.06 308.59 491.72 313.03 C 488.15 316.55 482.61 315.00 478.61 317.60 C 471.22 321.89 464.47 327.40 459.27 334.22 C 457.77 334.39 456.26 334.56 454.77 334.75 C 452.06 336.95 448.67 337.84 445.34 338.59 C 446.36 334.02 446.59 328.69 450.27 325.29 C 455.16 320.81 458.50 314.83 463.91 310.88 C 466.01 309.34 467.81 307.44 469.50 305.47 C 473.25 300.89 479.40 299.24 483.32 294.87 C 484.37 292.34 479.75 293.28 478.22 292.74 C 477.27 291.02 476.34 289.30 475.39 287.60 C 475.26 288.95 475.13 290.31 475.00 291.68 C 472.28 290.20 469.17 289.97 466.37 291.41 C 466.17 289.34 465.91 287.26 465.54 285.21 C 464.31 287.39 465.42 289.77 465.49 292.07 C 464.27 294.10 461.65 293.10 459.74 293.33 C 455.91 293.29 452.27 294.58 448.56 295.33 C 448.67 291.86 451.15 289.67 454.12 288.39 C 456.32 285.55 453.25 282.99 451.19 281.32 C 451.80 278.49 452.50 275.69 453.38 272.93 M 462.15 279.21 C 459.52 280.21 461.52 284.62 464.02 283.07 C 466.54 282.28 464.60 277.83 462.15 279.21 M 468.79 281.80 C 468.48 282.88 467.64 284.16 468.97 284.92 C 470.99 286.50 473.46 283.88 472.24 281.80 C 471.08 281.80 469.93 281.80 468.79 281.80 M 465.24 314.36 C 462.76 316.10 461.85 319.13 461.19 321.93 C 464.24 318.79 469.87 318.32 471.04 313.52 C 469.12 313.78 467.03 313.50 465.24 314.36 Z" />
<path fill="#cecece" opacity="1.00" d=" M 499.18 270.12 C 501.36 269.61 500.92 271.82 501.15 273.23 C 498.98 273.79 496.61 271.53 499.18 270.12 Z" />
<path fill="#a7a7a7" opacity="1.00" d=" M 482.45 272.19 C 484.67 272.08 486.90 271.89 489.12 271.70 C 492.23 276.05 494.25 281.04 496.35 285.92 C 494.03 285.03 491.71 284.10 489.42 283.15 C 490.03 282.04 490.66 280.95 491.31 279.87 C 488.49 277.16 485.47 274.67 482.45 272.19 Z" />
<path fill="#232323" opacity="1.00" d=" M 450.49 273.02 C 451.21 273.00 452.65 272.96 453.38 272.93 C 452.50 275.69 451.80 278.49 451.19 281.32 C 453.25 282.99 456.32 285.55 454.12 288.39 C 452.31 287.76 450.51 287.08 448.73 286.40 C 447.90 288.76 447.09 291.13 446.22 293.47 C 444.57 286.34 447.72 279.42 450.49 273.02 Z" />
<path fill="#b5b5b5" opacity="1.00" d=" M 462.15 279.21 C 464.60 277.83 466.54 282.28 464.02 283.07 C 461.52 284.62 459.52 280.21 462.15 279.21 Z" />
<path fill="#5a5a5a" opacity="1.00" d=" M 468.79 281.80 C 469.93 281.80 471.08 281.80 472.24 281.80 C 473.46 283.88 470.99 286.50 468.97 284.92 C 467.64 284.16 468.48 282.88 468.79 281.80 Z" />
<path fill="#101010" opacity="1.00" d=" M 349.99 288.14 C 346.47 288.43 344.26 283.64 347.70 281.84 C 349.01 283.71 349.97 285.81 349.99 288.14 Z" />
<path fill="#030304" opacity="1.00" d=" M 465.49 292.07 C 465.42 289.77 464.31 287.39 465.54 285.21 C 465.91 287.26 466.17 289.34 466.37 291.41 C 469.17 289.97 472.28 290.20 475.00 291.68 C 475.13 290.31 475.26 288.95 475.39 287.60 C 476.34 289.30 477.27 291.02 478.22 292.74 C 479.75 293.28 484.37 292.34 483.32 294.87 C 479.40 299.24 473.25 300.89 469.50 305.47 C 467.81 307.44 466.01 309.34 463.91 310.88 C 458.50 314.83 455.16 320.81 450.27 325.29 C 446.59 328.69 446.36 334.02 445.34 338.59 C 448.67 337.84 452.06 336.95 454.77 334.75 C 456.26 334.56 457.77 334.39 459.27 334.22 C 464.47 327.40 471.22 321.89 478.61 317.60 C 482.61 315.00 488.15 316.55 491.72 313.03 C 496.46 314.14 501.34 314.43 506.13 315.28 C 505.75 316.37 505.39 317.47 505.02 318.57 C 506.14 318.71 507.27 318.87 508.40 319.06 C 511.75 320.69 515.19 322.13 518.62 323.60 C 519.93 329.31 518.37 335.11 516.95 340.64 C 516.53 338.20 516.69 335.28 514.64 333.52 C 513.45 332.26 511.69 332.81 510.21 332.86 C 511.59 335.71 512.39 338.91 514.65 341.25 C 513.36 346.10 511.62 350.87 508.72 355.00 C 505.94 352.91 503.17 350.82 500.21 348.99 C 500.81 347.32 501.48 345.69 501.94 343.99 C 503.15 340.82 500.31 338.17 499.05 335.50 C 497.73 335.82 496.40 336.15 495.09 336.48 C 492.56 334.79 489.62 333.80 486.59 334.56 C 486.62 337.72 486.15 340.97 486.91 344.07 C 487.45 346.26 489.77 346.92 491.52 347.85 C 492.08 345.02 492.18 342.14 492.26 339.26 C 495.07 340.56 495.47 343.77 496.33 346.41 C 499.21 348.01 499.82 351.18 499.55 354.23 C 502.68 355.28 505.83 356.30 508.99 357.30 C 510.17 355.85 511.35 354.41 512.53 352.96 C 513.66 353.94 514.77 354.98 516.03 355.82 C 519.02 355.48 516.45 352.01 516.52 350.24 C 518.27 349.58 520.04 348.95 521.80 348.28 C 521.34 344.46 524.24 341.70 526.34 338.92 C 528.48 338.01 530.80 338.08 533.03 338.62 C 533.14 342.81 532.52 346.97 532.60 351.16 C 532.43 350.81 532.09 350.11 531.92 349.77 C 531.27 349.79 529.98 349.85 529.34 349.88 C 529.09 348.57 528.86 347.27 528.63 345.96 C 526.82 347.28 524.96 348.62 523.70 350.51 C 521.35 354.50 519.11 358.55 516.51 362.39 C 517.07 363.55 517.63 364.72 518.28 365.86 C 518.02 369.26 517.68 372.72 516.20 375.85 C 515.86 372.40 515.14 369.01 514.47 365.61 C 512.15 363.81 509.93 361.64 507.02 360.84 C 505.08 360.33 502.40 360.96 501.78 363.12 C 500.37 367.52 504.59 371.58 503.18 375.97 C 500.07 379.03 495.20 377.69 491.30 377.69 C 491.46 377.34 491.79 376.64 491.95 376.29 C 495.27 376.15 498.59 376.00 501.90 375.75 C 502.80 370.53 497.97 366.02 492.90 366.33 C 491.68 368.73 491.10 371.72 488.59 373.17 C 488.45 371.06 488.39 368.96 488.39 366.86 C 486.71 365.89 485.00 364.43 482.93 364.76 C 480.88 364.93 479.47 366.51 478.11 367.86 C 477.25 363.59 473.01 361.27 468.87 361.96 C 467.91 364.60 467.17 367.31 466.73 370.09 C 470.74 371.48 474.90 372.31 479.08 373.01 C 481.99 373.70 485.42 374.00 487.43 376.50 C 480.17 374.99 472.60 374.20 465.82 371.02 C 456.71 365.93 448.83 357.86 438.10 356.31 C 435.74 359.72 434.22 364.46 429.70 365.52 C 432.47 361.35 435.34 357.15 436.72 352.27 C 440.40 354.04 444.29 355.91 448.50 355.18 C 447.32 351.13 445.75 347.21 443.61 343.58 C 442.82 346.35 441.94 349.12 440.64 351.71 C 439.87 350.32 437.89 348.93 438.74 347.11 C 441.69 339.15 444.15 331.02 446.47 322.86 C 447.22 320.45 446.72 317.91 446.63 315.45 C 445.16 316.48 443.72 317.52 442.28 318.55 C 442.00 318.26 441.45 317.67 441.18 317.37 C 443.21 316.13 445.52 314.93 446.51 312.63 C 448.20 309.36 447.67 305.59 447.14 302.11 C 444.95 302.49 442.80 303.02 440.66 303.59 C 442.75 301.63 444.70 299.52 446.60 297.38 C 448.07 297.24 449.55 297.19 451.04 297.13 C 451.55 297.61 452.57 298.56 453.08 299.03 C 453.26 298.14 453.46 297.25 453.67 296.37 C 455.92 295.86 458.55 295.64 459.74 293.33 C 461.65 293.10 464.27 294.10 465.49 292.07 M 447.29 317.21 C 448.42 317.68 449.55 318.14 450.69 318.61 C 451.12 313.72 454.27 309.83 456.82 305.86 C 452.09 307.97 448.94 312.42 447.29 317.21 M 482.84 319.79 C 483.01 320.44 483.35 321.75 483.52 322.41 C 489.44 325.22 495.03 330.73 502.12 329.13 C 501.70 327.90 501.84 326.37 500.86 325.39 C 496.32 320.70 489.27 318.22 482.84 319.79 M 448.74 323.53 C 450.72 323.34 452.09 320.68 449.87 319.64 C 447.95 320.21 448.02 322.04 448.74 323.53 M 474.43 327.90 C 476.17 330.64 479.56 329.14 482.11 328.98 C 484.24 330.12 485.61 332.31 487.85 333.32 C 490.73 331.58 493.23 334.01 495.98 334.58 C 498.11 334.31 496.27 332.08 496.30 330.87 C 490.73 328.84 486.12 324.15 479.96 323.95 C 477.72 324.21 474.22 324.94 474.43 327.90 M 504.07 330.21 C 508.06 331.12 512.19 331.29 516.22 332.08 C 516.86 330.08 517.17 327.87 516.03 325.99 C 513.14 324.89 510.03 324.59 507.04 323.84 C 503.59 322.62 500.40 328.63 504.07 330.21 M 463.87 332.35 C 464.88 335.36 465.77 338.64 468.11 340.93 C 469.10 341.75 470.68 342.87 471.94 341.89 C 475.69 339.96 475.05 335.11 475.33 331.60 C 473.18 330.32 470.67 328.88 468.09 329.73 C 466.60 330.47 465.25 331.45 463.87 332.35 M 476.61 341.50 C 478.95 343.29 481.84 343.98 484.75 344.10 C 485.17 340.18 485.55 335.95 483.69 332.33 C 483.22 330.42 481.27 330.39 479.68 330.33 C 477.87 333.81 477.46 337.73 476.61 341.50 M 498.87 332.03 C 499.55 335.82 504.58 336.87 506.96 333.89 C 505.11 331.23 501.68 330.86 498.87 332.03 M 457.44 340.09 C 459.09 344.89 466.63 338.24 461.96 335.91 C 460.14 336.89 457.90 337.79 457.44 340.09 M 505.13 338.00 C 504.38 341.21 503.81 344.46 503.35 347.73 C 505.84 347.77 508.34 347.77 510.84 347.76 C 511.41 344.75 511.88 341.04 509.60 338.60 C 508.43 337.22 506.61 337.87 505.13 338.00 M 446.24 342.38 C 447.15 344.21 448.11 346.02 449.08 347.82 C 451.52 347.61 454.51 348.11 456.27 345.98 C 456.60 344.05 455.39 342.15 454.03 340.88 C 451.36 340.58 448.69 341.38 446.24 342.38 M 480.28 349.61 C 482.39 350.59 485.39 351.33 486.95 349.01 C 486.51 345.81 479.80 345.92 480.28 349.61 M 495.16 350.82 C 495.05 352.39 493.50 354.59 495.45 355.61 C 498.10 355.51 498.16 350.47 495.16 350.82 M 452.26 353.02 C 451.55 354.26 450.83 355.50 450.12 356.74 C 453.39 361.35 458.23 364.45 463.09 367.16 C 463.64 367.01 464.75 366.71 465.30 366.56 C 465.37 363.83 467.32 360.77 465.59 358.32 C 462.89 357.53 460.81 360.28 458.45 361.17 C 458.43 358.48 458.42 355.79 458.34 353.10 C 456.31 352.81 454.28 352.73 452.26 353.02 M 466.49 354.48 C 465.44 357.48 469.67 358.74 471.76 359.63 C 472.39 357.94 473.07 356.27 473.78 354.62 C 471.70 353.00 468.56 352.67 466.49 354.48 M 474.64 360.76 C 479.53 362.65 485.21 363.67 490.11 361.24 C 490.20 362.40 490.29 363.57 490.40 364.75 C 493.56 364.68 496.72 364.49 499.87 364.18 C 498.69 360.70 494.85 359.87 491.67 359.31 C 492.74 358.65 493.80 357.97 494.87 357.29 C 492.62 354.29 489.00 352.71 485.28 353.33 C 485.12 355.54 484.91 357.75 484.60 359.96 C 482.20 358.46 482.51 355.37 481.92 352.94 C 480.23 352.94 478.54 352.97 476.86 352.98 C 476.02 355.49 474.41 358.16 474.64 360.76 M 512.26 356.48 C 511.35 357.54 511.68 359.13 512.94 359.75 C 515.43 359.47 514.82 355.00 512.26 356.48 Z" />
<path fill="#989898" opacity="1.00" d=" M 446.22 293.47 C 447.09 291.13 447.90 288.76 448.73 286.40 C 450.51 287.08 452.31 287.76 454.12 288.39 C 451.15 289.67 448.67 291.86 448.56 295.33 C 452.27 294.58 455.91 293.29 459.74 293.33 C 458.55 295.64 455.92 295.86 453.67 296.37 C 453.46 297.25 453.26 298.14 453.08 299.03 C 452.57 298.56 451.55 297.61 451.04 297.13 C 449.55 297.19 448.07 297.24 446.60 297.38 C 446.52 296.07 446.38 294.77 446.22 293.47 Z" />
<path fill="#0f0f0f" opacity="1.00" d=" M 304.75 289.20 C 306.47 290.63 307.89 292.37 309.21 294.17 C 310.60 293.34 311.90 291.06 313.67 292.40 C 313.61 294.75 311.40 297.39 309.06 297.69 C 305.71 296.53 304.72 292.38 304.75 289.20 Z" />
<path fill="#626262" opacity="1.00" d=" M 519.58 302.19 C 521.77 299.44 524.03 296.72 526.82 294.55 C 526.02 296.54 524.24 298.43 524.65 300.71 C 524.14 300.62 523.13 300.42 522.63 300.32 C 523.28 302.45 524.73 304.15 526.40 305.57 C 524.79 306.08 523.19 306.62 521.54 307.01 C 520.90 305.39 520.29 303.77 519.58 302.19 Z" />
<path fill="#585858" opacity="1.00" d=" M 380.99 299.95 C 379.83 298.53 381.12 297.13 382.29 296.29 C 383.05 297.01 383.83 297.73 384.60 298.45 C 384.54 298.94 384.42 299.92 384.36 300.41 C 383.17 300.62 381.72 301.33 380.99 299.95 Z" />
<path fill="#fcfcfc" opacity="1.00" d=" M 498.78 300.71 C 500.33 298.91 501.42 296.20 504.02 295.76 C 510.02 294.33 515.38 298.43 519.58 302.19 C 520.29 303.77 520.90 305.39 521.54 307.01 C 515.29 306.07 508.60 307.13 502.73 304.37 C 501.35 303.21 500.06 301.95 498.78 300.71 Z" />
<path fill="#0e0e0e" opacity="1.00" d=" M 385.36 305.62 C 383.32 302.13 388.54 299.16 391.41 298.63 C 390.40 301.69 388.49 304.48 385.36 305.62 Z" />
<path fill="#616161" opacity="1.00" d=" M 473.88 307.69 C 475.49 303.92 478.63 301.03 482.37 299.45 C 487.44 302.08 493.33 300.53 498.78 300.71 C 500.06 301.95 501.35 303.21 502.73 304.37 C 502.10 304.74 500.85 305.47 500.23 305.84 C 495.65 303.32 490.30 301.64 485.05 302.54 C 481.05 303.60 477.70 306.20 473.88 307.69 Z" />
<path fill="#090909" opacity="1.00" d=" M 500.23 305.84 C 500.85 305.47 502.10 304.74 502.73 304.37 C 508.60 307.13 515.29 306.07 521.54 307.01 C 523.19 306.62 524.79 306.08 526.40 305.57 C 528.53 307.51 530.58 309.53 532.60 311.58 C 532.33 316.55 531.02 321.50 531.71 326.49 C 531.98 328.23 532.32 329.98 532.53 331.75 C 532.56 332.36 532.62 333.60 532.65 334.21 C 531.79 334.14 530.08 334.00 529.23 333.93 C 528.21 329.26 527.68 324.47 526.31 319.88 C 524.79 315.38 520.39 312.89 517.25 309.63 C 511.38 309.77 505.23 309.22 500.23 305.84 Z" />
<path fill="#fcfcfc" opacity="1.00" d=" M 447.29 317.21 C 448.94 312.42 452.09 307.97 456.82 305.86 C 454.27 309.83 451.12 313.72 450.69 318.61 C 449.55 318.14 448.42 317.68 447.29 317.21 Z" />
<path fill="#585858" opacity="1.00" d=" M 533.13 305.93 C 536.20 309.26 540.89 313.24 538.27 318.24 C 539.24 319.66 540.22 321.08 541.20 322.50 C 538.74 321.66 536.33 320.68 533.97 319.61 C 535.49 323.07 536.96 326.54 538.49 329.99 C 536.39 328.53 534.17 327.22 531.71 326.49 C 531.02 321.50 532.33 316.55 532.60 311.58 C 532.77 309.69 532.95 307.81 533.13 305.93 Z" />
<path fill="#8b8b8b" opacity="1.00" d=" M 491.72 313.03 C 497.06 308.59 504.05 312.74 509.88 313.86 C 509.38 315.59 508.89 317.32 508.40 319.06 C 507.27 318.87 506.14 318.71 505.02 318.57 C 505.39 317.47 505.75 316.37 506.13 315.28 C 501.34 314.43 496.46 314.14 491.72 313.03 Z" />
<path fill="#232323" opacity="1.00" d=" M 465.24 314.36 C 467.03 313.50 469.12 313.78 471.04 313.52 C 469.87 318.32 464.24 318.79 461.19 321.93 C 461.85 319.13 462.76 316.10 465.24 314.36 Z" />
<path fill="#f6f6f6" opacity="1.00" d=" M 482.84 319.79 C 489.27 318.22 496.32 320.70 500.86 325.39 C 501.84 326.37 501.70 327.90 502.12 329.13 C 495.03 330.73 489.44 325.22 483.52 322.41 C 483.35 321.75 483.01 320.44 482.84 319.79 Z" />
<path fill="#fdfdfd" opacity="1.00" d=" M 448.74 323.53 C 448.02 322.04 447.95 320.21 449.87 319.64 C 452.09 320.68 450.72 323.34 448.74 323.53 Z" />
<path fill="#717171" opacity="1.00" d=" M 526.31 319.88 C 527.68 324.47 528.21 329.26 529.23 333.93 C 530.08 334.00 531.79 334.14 532.65 334.21 C 532.62 333.60 532.56 332.36 532.53 331.75 C 532.84 334.02 532.98 336.32 533.03 338.62 C 530.80 338.08 528.48 338.01 526.34 338.92 C 529.08 332.80 525.67 326.25 526.31 319.88 Z" />
<path fill="#585858" opacity="1.00" d=" M 374.51 322.70 C 378.48 322.33 377.52 329.79 374.02 329.38 C 371.45 328.33 371.83 323.31 374.51 322.70 Z" />
<path fill="#fcfcfc" opacity="1.00" d=" M 474.43 327.90 C 474.22 324.94 477.72 324.21 479.96 323.95 C 486.12 324.15 490.73 328.84 496.30 330.87 C 496.27 332.08 498.11 334.31 495.98 334.58 C 493.23 334.01 490.73 331.58 487.85 333.32 C 485.61 332.31 484.24 330.12 482.11 328.98 C 479.56 329.14 476.17 330.64 474.43 327.90 Z" />
<path fill="#fafafa" opacity="1.00" d=" M 504.07 330.21 C 500.40 328.63 503.59 322.62 507.04 323.84 C 510.03 324.59 513.14 324.89 516.03 325.99 C 517.17 327.87 516.86 330.08 516.22 332.08 C 512.19 331.29 508.06 331.12 504.07 330.21 Z" />
<path fill="#fdfdfd" opacity="1.00" d=" M 463.87 332.35 C 465.25 331.45 466.60 330.47 468.09 329.73 C 470.67 328.88 473.18 330.32 475.33 331.60 C 475.05 335.11 475.69 339.96 471.94 341.89 C 470.68 342.87 469.10 341.75 468.11 340.93 C 465.77 338.64 464.88 335.36 463.87 332.35 Z" />
<path fill="#fafafa" opacity="1.00" d=" M 476.61 341.50 C 477.46 337.73 477.87 333.81 479.68 330.33 C 481.27 330.39 483.22 330.42 483.69 332.33 C 485.55 335.95 485.17 340.18 484.75 344.10 C 481.84 343.98 478.95 343.29 476.61 341.50 Z" />
<path fill="#ececec" opacity="1.00" d=" M 498.87 332.03 C 501.68 330.86 505.11 331.23 506.96 333.89 C 504.58 336.87 499.55 335.82 498.87 332.03 Z" />
<path fill="#fdfdfd" opacity="1.00" d=" M 457.44 340.09 C 457.90 337.79 460.14 336.89 461.96 335.91 C 466.63 338.24 459.09 344.89 457.44 340.09 Z" />
<path fill="#0e0e0e" opacity="1.00" d=" M 344.94 344.88 C 343.71 342.30 344.45 338.61 347.63 338.05 C 347.68 339.89 347.68 341.74 347.69 343.59 C 349.71 343.11 351.72 342.58 353.72 342.00 C 353.62 343.19 353.52 344.39 353.42 345.60 C 350.69 345.98 346.99 347.60 344.94 344.88 Z" />
<path fill="#fdfdfd" opacity="1.00" d=" M 505.13 338.00 C 506.61 337.87 508.43 337.22 509.60 338.60 C 511.88 341.04 511.41 344.75 510.84 347.76 C 508.34 347.77 505.84 347.77 503.35 347.73 C 503.81 344.46 504.38 341.21 505.13 338.00 Z" />
<path fill="#ffffff" opacity="1.00" d=" M 446.24 342.38 C 448.69 341.38 451.36 340.58 454.03 340.88 C 455.39 342.15 456.60 344.05 456.27 345.98 C 454.51 348.11 451.52 347.61 449.08 347.82 C 448.11 346.02 447.15 344.21 446.24 342.38 Z" />
<path fill="#595959" opacity="1.00" d=" M 528.63 345.96 C 528.86 347.27 529.09 348.57 529.34 349.88 C 529.98 349.85 531.27 349.79 531.92 349.77 C 532.09 350.11 532.43 350.81 532.60 351.16 C 534.43 355.80 537.77 360.07 537.34 365.32 C 536.22 364.92 535.11 364.53 534.00 364.13 C 533.63 359.76 532.99 354.98 529.29 352.08 C 529.10 355.14 528.96 358.21 528.67 361.27 C 525.09 358.65 526.87 353.46 523.70 350.51 C 524.96 348.62 526.82 347.28 528.63 345.96 Z" />
<path fill="#fafafa" opacity="1.00" d=" M 480.28 349.61 C 479.80 345.92 486.51 345.81 486.95 349.01 C 485.39 351.33 482.39 350.59 480.28 349.61 Z" />
<path fill="#fafafa" opacity="1.00" d=" M 495.16 350.82 C 498.16 350.47 498.10 355.51 495.45 355.61 C 493.50 354.59 495.05 352.39 495.16 350.82 Z" />
<path fill="#fcfcfc" opacity="1.00" d=" M 452.26 353.02 C 454.28 352.73 456.31 352.81 458.34 353.10 C 458.42 355.79 458.43 358.48 458.45 361.17 C 460.81 360.28 462.89 357.53 465.59 358.32 C 467.32 360.77 465.37 363.83 465.30 366.56 C 464.75 366.71 463.64 367.01 463.09 367.16 C 458.23 364.45 453.39 361.35 450.12 356.74 C 450.83 355.50 451.55 354.26 452.26 353.02 Z" />
<path fill="#ffffff" opacity="1.00" d=" M 466.49 354.48 C 468.56 352.67 471.70 353.00 473.78 354.62 C 473.07 356.27 472.39 357.94 471.76 359.63 C 469.67 358.74 465.44 357.48 466.49 354.48 Z" />
<path fill="#fcfcfc" opacity="1.00" d=" M 474.64 360.76 C 474.41 358.16 476.02 355.49 476.86 352.98 C 478.54 352.97 480.23 352.94 481.92 352.94 C 482.51 355.37 482.20 358.46 484.60 359.96 C 484.91 357.75 485.12 355.54 485.28 353.33 C 489.00 352.71 492.62 354.29 494.87 357.29 C 493.80 357.97 492.74 358.65 491.67 359.31 C 494.85 359.87 498.69 360.70 499.87 364.18 C 496.72 364.49 493.56 364.68 490.40 364.75 C 490.29 363.57 490.20 362.40 490.11 361.24 C 485.21 363.67 479.53 362.65 474.64 360.76 Z" />
<path fill="#f6f6f6" opacity="1.00" d=" M 512.26 356.48 C 514.82 355.00 515.43 359.47 512.94 359.75 C 511.68 359.13 511.35 357.54 512.26 356.48 Z" />
<path fill="#5a5a5a" opacity="1.00" d=" M 518.28 365.86 C 518.79 366.63 519.31 367.39 519.86 368.16 C 523.34 368.67 527.80 368.42 529.40 372.29 C 525.91 372.10 522.42 371.83 518.93 371.81 C 518.73 375.32 518.59 378.89 517.57 382.29 C 517.21 381.80 516.50 380.81 516.14 380.32 C 516.16 378.83 516.17 377.34 516.20 375.85 C 517.68 372.72 518.02 369.26 518.28 365.86 Z" />
<path fill="#383838" opacity="1.00" d=" M 429.34 373.84 C 430.14 373.86 431.74 373.92 432.54 373.94 C 430.41 379.33 425.74 383.11 423.36 388.35 C 421.24 392.88 419.02 397.40 417.56 402.20 C 424.17 403.08 426.11 395.80 427.50 390.90 C 431.64 391.89 431.54 397.25 428.57 399.52 C 423.87 402.84 421.06 408.03 417.50 412.43 C 415.42 414.79 414.64 418.45 411.49 419.68 C 412.96 408.45 416.02 397.33 421.19 387.22 C 423.48 382.49 427.91 379.03 429.34 373.84 Z" />
<path fill="#040404" opacity="1.00" d=" M 444.95 373.72 C 449.17 376.86 453.28 380.16 457.32 383.53 C 456.65 383.78 455.32 384.27 454.65 384.52 C 451.12 381.24 446.26 378.72 444.95 373.72 Z" />
<path fill="#ffffff" opacity="1.00" d=" M 264.74 386.71 C 267.39 385.28 270.07 387.25 272.18 388.74 C 282.37 396.12 292.98 402.92 303.91 409.13 C 314.33 414.81 324.49 421.33 336.09 424.35 C 344.55 426.64 352.22 431.15 360.76 433.18 C 384.23 438.11 408.10 441.29 432.08 442.07 C 425.76 451.60 417.46 459.67 411.52 469.47 C 405.84 479.20 400.32 489.26 392.52 497.49 C 387.18 500.66 380.65 498.43 374.82 499.39 C 366.43 500.71 358.40 503.67 350.14 505.59 C 348.05 503.43 346.01 501.22 343.97 499.02 C 333.62 487.66 320.61 479.02 310.85 467.09 C 306.64 461.97 300.88 458.40 296.77 453.19 C 293.65 449.01 289.13 446.07 286.39 441.59 C 282.08 434.73 274.93 430.30 270.61 423.46 C 267.02 417.68 261.11 412.54 254.06 412.21 C 252.03 413.40 252.21 415.89 251.92 417.92 C 254.38 419.58 256.96 421.04 259.44 422.67 C 262.34 424.45 263.67 427.72 265.74 430.29 C 270.52 436.38 276.98 441.05 281.00 447.76 C 283.44 451.97 287.85 454.43 290.73 458.28 C 294.78 463.54 300.60 467.02 304.83 472.12 C 314.49 483.49 326.54 492.44 337.06 502.95 C 340.70 506.51 343.26 510.95 346.42 514.90 C 359.16 512.38 371.25 506.12 384.52 506.74 C 383.75 512.16 380.77 516.85 379.11 521.99 C 377.34 527.20 374.50 531.93 371.55 536.53 C 364.57 538.67 361.87 546.13 359.03 552.11 C 357.28 555.95 355.16 559.64 352.58 563.00 L 110.47 563.00 C 110.76 556.68 111.25 550.33 112.75 544.16 C 114.20 538.79 116.54 533.49 120.57 529.54 C 126.67 523.66 131.61 516.52 138.75 511.78 C 143.19 508.95 145.58 504.09 147.75 499.48 C 150.90 492.46 156.34 486.88 160.47 480.46 C 165.23 473.94 169.03 466.56 175.22 461.22 C 183.61 453.54 193.33 447.46 201.57 439.60 C 207.30 434.21 214.12 430.16 219.96 424.90 C 227.52 418.16 235.15 411.50 242.78 404.85 C 249.92 398.63 256.06 390.93 264.74 386.71 Z" />
<path fill="#393939" opacity="1.00" d=" M 420.60 424.71 C 421.69 423.26 422.81 421.83 423.96 420.42 C 424.58 422.89 425.77 425.14 427.25 427.21 C 424.67 427.61 422.51 426.21 420.60 424.71 Z" />
<path fill="#f8e7df" opacity="1.00" d=" M 483.55 489.75 C 492.24 489.79 498.44 496.42 505.39 500.59 C 509.64 502.15 514.44 501.72 518.87 501.09 C 521.92 499.64 523.73 496.46 526.13 494.17 C 529.25 494.53 532.36 494.90 535.47 495.36 C 532.07 498.17 528.61 501.04 524.46 502.68 C 518.10 505.20 512.67 509.53 506.22 511.85 C 502.88 509.53 499.62 507.09 496.65 504.32 C 491.89 499.85 486.57 495.68 483.55 489.75 Z" />
<path fill="#bebfd0" opacity="1.00" d=" M 359.03 552.11 C 361.87 546.13 364.57 538.67 371.55 536.53 C 367.15 545.42 361.59 553.73 357.97 563.00 L 352.58 563.00 C 355.16 559.64 357.28 555.95 359.03 552.11 Z" />
</svg>
